<svg width="375" height="153" viewBox="0 0 375 153" fill="none" xmlns="http://www.w3.org/2000/svg">
<circle cx="277" cy="-59" r="200" fill="#C4C4C4"/>
<circle cx="277" cy="-59" r="200" fill="url(#paint0_linear)"/>
<circle cx="277" cy="-59" r="200" fill="url(#paint1_linear)"/>
<circle cx="277" cy="-59" r="200" fill="url(#paint2_linear)"/>
<circle cx="111" cy="130" r="5" fill="#C4C4C4"/>
<circle cx="111" cy="130" r="5" fill="url(#paint3_linear)"/>
<circle cx="111" cy="130" r="5" fill="url(#paint4_linear)"/>
<circle cx="111" cy="130" r="5" fill="url(#paint5_linear)"/>
<circle cx="299" cy="105" r="5" transform="rotate(-90 299 105)" fill="#C4C4C4"/>
<circle cx="299" cy="105" r="5" transform="rotate(-90 299 105)" fill="url(#paint6_linear)"/>
<circle cx="299" cy="105" r="5" transform="rotate(-90 299 105)" fill="url(#paint7_linear)"/>
<circle cx="299" cy="105" r="5" transform="rotate(-90 299 105)" fill="url(#paint8_linear)"/>
<circle cx="299" cy="105" r="5" transform="rotate(-90 299 105)" fill="url(#paint9_linear)"/>
<circle cx="79" cy="99" r="2" fill="#C4C4C4"/>
<circle cx="79" cy="99" r="2" fill="url(#paint10_linear)"/>
<circle cx="79" cy="99" r="2" fill="url(#paint11_linear)"/>
<circle cx="79" cy="99" r="2" fill="url(#paint12_linear)"/>
<circle cx="268" cy="137" r="2" transform="rotate(-90 268 137)" fill="#C4C4C4"/>
<circle cx="268" cy="137" r="2" transform="rotate(-90 268 137)" fill="url(#paint13_linear)"/>
<circle cx="268" cy="137" r="2" transform="rotate(-90 268 137)" fill="url(#paint14_linear)"/>
<circle cx="268" cy="137" r="2" transform="rotate(-90 268 137)" fill="url(#paint15_linear)"/>
<circle cx="268" cy="137" r="2" transform="rotate(-90 268 137)" fill="url(#paint16_linear)"/>
<circle cx="69" cy="150" r="3" fill="#C4C4C4"/>
<circle cx="69" cy="150" r="3" fill="url(#paint17_linear)"/>
<circle cx="69" cy="150" r="3" fill="url(#paint18_linear)"/>
<circle cx="69" cy="150" r="3" fill="url(#paint19_linear)"/>
<circle cx="319" cy="147" r="3" transform="rotate(-90 319 147)" fill="#C4C4C4"/>
<circle cx="319" cy="147" r="3" transform="rotate(-90 319 147)" fill="url(#paint20_linear)"/>
<circle cx="319" cy="147" r="3" transform="rotate(-90 319 147)" fill="url(#paint21_linear)"/>
<circle cx="319" cy="147" r="3" transform="rotate(-90 319 147)" fill="url(#paint22_linear)"/>
<circle cx="319" cy="147" r="3" transform="rotate(-90 319 147)" fill="url(#paint23_linear)"/>
<circle cx="47" cy="-39" r="100" fill="#C4C4C4"/>
<circle cx="47" cy="-39" r="100" fill="url(#paint24_linear)"/>
<defs>
<linearGradient id="paint0_linear" x1="77" y1="-62.6364" x2="477" y2="-62.6364" gradientUnits="userSpaceOnUse">
<stop stop-color="#667DE8"/>
<stop offset="0.47152" stop-color="#6E63C5"/>
<stop offset="1" stop-color="#754DA5"/>
</linearGradient>
<linearGradient id="paint1_linear" x1="77" y1="-62.6364" x2="477" y2="-62.6364" gradientUnits="userSpaceOnUse">
<stop stop-color="#ED6F9F"/>
<stop offset="0.47152" stop-color="#ED7D85"/>
<stop offset="1" stop-color="#EC8B6A"/>
</linearGradient>
<linearGradient id="paint2_linear" x1="77" y1="-62.6364" x2="477" y2="-62.6364" gradientUnits="userSpaceOnUse">
<stop stop-color="#667DE8"/>
<stop offset="0.47152" stop-color="#6E63C5"/>
<stop offset="1" stop-color="#754DA5"/>
</linearGradient>
<linearGradient id="paint3_linear" x1="106" y1="129.909" x2="116" y2="129.909" gradientUnits="userSpaceOnUse">
<stop stop-color="#667DE8"/>
<stop offset="0.47152" stop-color="#6E63C5"/>
<stop offset="1" stop-color="#754DA5"/>
</linearGradient>
<linearGradient id="paint4_linear" x1="106" y1="129.909" x2="116" y2="129.909" gradientUnits="userSpaceOnUse">
<stop stop-color="#ED6F9F"/>
<stop offset="0.47152" stop-color="#ED7D85"/>
<stop offset="1" stop-color="#EC8B6A"/>
</linearGradient>
<linearGradient id="paint5_linear" x1="106" y1="129.909" x2="116" y2="129.909" gradientUnits="userSpaceOnUse">
<stop stop-color="#F4CB60"/>
<stop offset="0.47152" stop-color="#EC8232"/>
<stop offset="1" stop-color="#E53B06"/>
</linearGradient>
<linearGradient id="paint6_linear" x1="294" y1="104.909" x2="304" y2="104.909" gradientUnits="userSpaceOnUse">
<stop stop-color="#667DE8"/>
<stop offset="0.47152" stop-color="#6E63C5"/>
<stop offset="1" stop-color="#754DA5"/>
</linearGradient>
<linearGradient id="paint7_linear" x1="294" y1="104.909" x2="304" y2="104.909" gradientUnits="userSpaceOnUse">
<stop stop-color="#ED6F9F"/>
<stop offset="0.47152" stop-color="#ED7D85"/>
<stop offset="1" stop-color="#EC8B6A"/>
</linearGradient>
<linearGradient id="paint8_linear" x1="294" y1="104.909" x2="304" y2="104.909" gradientUnits="userSpaceOnUse">
<stop stop-color="#F4CB60"/>
<stop offset="0.47152" stop-color="#EC8232"/>
<stop offset="1" stop-color="#E53B06"/>
</linearGradient>
<linearGradient id="paint9_linear" x1="294" y1="104.909" x2="304" y2="104.909" gradientUnits="userSpaceOnUse">
<stop stop-color="#26ACDE"/>
<stop offset="0.47152" stop-color="#31C5BE"/>
<stop offset="1" stop-color="#3EE099"/>
</linearGradient>
<linearGradient id="paint10_linear" x1="77" y1="98.9636" x2="81" y2="98.9636" gradientUnits="userSpaceOnUse">
<stop stop-color="#667DE8"/>
<stop offset="0.47152" stop-color="#6E63C5"/>
<stop offset="1" stop-color="#754DA5"/>
</linearGradient>
<linearGradient id="paint11_linear" x1="77" y1="98.9636" x2="81" y2="98.9636" gradientUnits="userSpaceOnUse">
<stop stop-color="#ED6F9F"/>
<stop offset="0.47152" stop-color="#ED7D85"/>
<stop offset="1" stop-color="#EC8B6A"/>
</linearGradient>
<linearGradient id="paint12_linear" x1="77" y1="98.9636" x2="81" y2="98.9636" gradientUnits="userSpaceOnUse">
<stop stop-color="#F4CB60"/>
<stop offset="0.47152" stop-color="#EC8232"/>
<stop offset="1" stop-color="#E53B06"/>
</linearGradient>
<linearGradient id="paint13_linear" x1="266" y1="136.964" x2="270" y2="136.964" gradientUnits="userSpaceOnUse">
<stop stop-color="#667DE8"/>
<stop offset="0.47152" stop-color="#6E63C5"/>
<stop offset="1" stop-color="#754DA5"/>
</linearGradient>
<linearGradient id="paint14_linear" x1="266" y1="136.964" x2="270" y2="136.964" gradientUnits="userSpaceOnUse">
<stop stop-color="#ED6F9F"/>
<stop offset="0.47152" stop-color="#ED7D85"/>
<stop offset="1" stop-color="#EC8B6A"/>
</linearGradient>
<linearGradient id="paint15_linear" x1="266" y1="136.964" x2="270" y2="136.964" gradientUnits="userSpaceOnUse">
<stop stop-color="#F4CB60"/>
<stop offset="0.47152" stop-color="#EC8232"/>
<stop offset="1" stop-color="#E53B06"/>
</linearGradient>
<linearGradient id="paint16_linear" x1="266" y1="136.964" x2="270" y2="136.964" gradientUnits="userSpaceOnUse">
<stop stop-color="#26ACDE"/>
<stop offset="0.47152" stop-color="#31C5BE"/>
<stop offset="1" stop-color="#3EE099"/>
</linearGradient>
<linearGradient id="paint17_linear" x1="66" y1="149.945" x2="72" y2="149.945" gradientUnits="userSpaceOnUse">
<stop stop-color="#667DE8"/>
<stop offset="0.47152" stop-color="#6E63C5"/>
<stop offset="1" stop-color="#754DA5"/>
</linearGradient>
<linearGradient id="paint18_linear" x1="66" y1="149.945" x2="72" y2="149.945" gradientUnits="userSpaceOnUse">
<stop stop-color="#ED6F9F"/>
<stop offset="0.47152" stop-color="#ED7D85"/>
<stop offset="1" stop-color="#EC8B6A"/>
</linearGradient>
<linearGradient id="paint19_linear" x1="66" y1="149.945" x2="72" y2="149.945" gradientUnits="userSpaceOnUse">
<stop stop-color="#F4CB60"/>
<stop offset="0.47152" stop-color="#EC8232"/>
<stop offset="1" stop-color="#E53B06"/>
</linearGradient>
<linearGradient id="paint20_linear" x1="316" y1="146.945" x2="322" y2="146.945" gradientUnits="userSpaceOnUse">
<stop stop-color="#667DE8"/>
<stop offset="0.47152" stop-color="#6E63C5"/>
<stop offset="1" stop-color="#754DA5"/>
</linearGradient>
<linearGradient id="paint21_linear" x1="316" y1="146.945" x2="322" y2="146.945" gradientUnits="userSpaceOnUse">
<stop stop-color="#ED6F9F"/>
<stop offset="0.47152" stop-color="#ED7D85"/>
<stop offset="1" stop-color="#EC8B6A"/>
</linearGradient>
<linearGradient id="paint22_linear" x1="316" y1="146.945" x2="322" y2="146.945" gradientUnits="userSpaceOnUse">
<stop stop-color="#F4CB60"/>
<stop offset="0.47152" stop-color="#EC8232"/>
<stop offset="1" stop-color="#E53B06"/>
</linearGradient>
<linearGradient id="paint23_linear" x1="316" y1="146.945" x2="322" y2="146.945" gradientUnits="userSpaceOnUse">
<stop stop-color="#26ACDE"/>
<stop offset="0.47152" stop-color="#31C5BE"/>
<stop offset="1" stop-color="#3EE099"/>
</linearGradient>
<linearGradient id="paint24_linear" x1="-53" y1="-40.8182" x2="147" y2="-40.8182" gradientUnits="userSpaceOnUse">
<stop stop-color="#F4CB60"/>
<stop offset="0.47152" stop-color="#EC8232"/>
<stop offset="1" stop-color="#E53B06"/>
</linearGradient>
</defs>
</svg>
