<svg width="363" height="137" viewBox="0 0 363 137" fill="none" xmlns="http://www.w3.org/2000/svg">
<circle cx="7" cy="-19" r="100" fill="#C4C4C4"/>
<circle cx="7" cy="-19" r="100" fill="url(#paint0_linear)"/>
<circle cx="7" cy="-19" r="100" fill="url(#paint1_linear)"/>
<circle cx="7" cy="-19" r="100" fill="url(#paint2_linear)"/>
<circle cx="91" cy="63" r="5" fill="#C4C4C4"/>
<circle cx="91" cy="63" r="5" fill="url(#paint3_linear)"/>
<circle cx="238" cy="31" r="5" transform="rotate(-90 238 31)" fill="#C4C4C4"/>
<circle cx="238" cy="31" r="5" transform="rotate(-90 238 31)" fill="url(#paint4_linear)"/>
<circle cx="238" cy="31" r="5" transform="rotate(-90 238 31)" fill="url(#paint5_linear)"/>
<circle cx="238" cy="31" r="5" transform="rotate(-90 238 31)" fill="url(#paint6_linear)"/>
<circle cx="39" cy="82" r="2" fill="#C4C4C4"/>
<circle cx="39" cy="82" r="2" fill="url(#paint7_linear)"/>
<circle cx="299" cy="135" r="2" transform="rotate(-90 299 135)" fill="#C4C4C4"/>
<circle cx="299" cy="135" r="2" transform="rotate(-90 299 135)" fill="url(#paint8_linear)"/>
<circle cx="299" cy="135" r="2" transform="rotate(-90 299 135)" fill="url(#paint9_linear)"/>
<circle cx="299" cy="135" r="2" transform="rotate(-90 299 135)" fill="url(#paint10_linear)"/>
<circle cx="19" cy="123" r="3" fill="#C4C4C4"/>
<circle cx="19" cy="123" r="3" fill="url(#paint11_linear)"/>
<circle cx="360" cy="125" r="3" transform="rotate(-90 360 125)" fill="#C4C4C4"/>
<circle cx="360" cy="125" r="3" transform="rotate(-90 360 125)" fill="url(#paint12_linear)"/>
<circle cx="360" cy="125" r="3" transform="rotate(-90 360 125)" fill="url(#paint13_linear)"/>
<circle cx="360" cy="125" r="3" transform="rotate(-90 360 125)" fill="url(#paint14_linear)"/>
<defs>
<linearGradient id="paint0_linear" x1="-93" y1="-20.8182" x2="107" y2="-20.8182" gradientUnits="userSpaceOnUse">
<stop stop-color="#F4CB60"/>
<stop offset="0.47152" stop-color="#EC8232"/>
<stop offset="1" stop-color="#E53B06"/>
</linearGradient>
<linearGradient id="paint1_linear" x1="-93" y1="-20.8182" x2="107" y2="-20.8182" gradientUnits="userSpaceOnUse">
<stop stop-color="#ED6F9F"/>
<stop offset="0.47152" stop-color="#ED7D85"/>
<stop offset="1" stop-color="#EC8B6A"/>
</linearGradient>
<linearGradient id="paint2_linear" x1="-93" y1="-20.8182" x2="107" y2="-20.8182" gradientUnits="userSpaceOnUse">
<stop stop-color="#26ACDE"/>
<stop offset="0.47152" stop-color="#31C5BE"/>
<stop offset="1" stop-color="#3EE099"/>
</linearGradient>
<linearGradient id="paint3_linear" x1="86" y1="62.9091" x2="96" y2="62.9091" gradientUnits="userSpaceOnUse">
<stop stop-color="#667DE8"/>
<stop offset="0.47152" stop-color="#6E63C5"/>
<stop offset="1" stop-color="#754DA5"/>
</linearGradient>
<linearGradient id="paint4_linear" x1="233" y1="30.9091" x2="243" y2="30.9091" gradientUnits="userSpaceOnUse">
<stop stop-color="#667DE8"/>
<stop offset="0.47152" stop-color="#6E63C5"/>
<stop offset="1" stop-color="#754DA5"/>
</linearGradient>
<linearGradient id="paint5_linear" x1="233" y1="30.9091" x2="243" y2="30.9091" gradientUnits="userSpaceOnUse">
<stop stop-color="#ED6F9F"/>
<stop offset="0.47152" stop-color="#ED7D85"/>
<stop offset="1" stop-color="#EC8B6A"/>
</linearGradient>
<linearGradient id="paint6_linear" x1="233" y1="30.9091" x2="243" y2="30.9091" gradientUnits="userSpaceOnUse">
<stop stop-color="#F4CB60"/>
<stop offset="0.47152" stop-color="#EC8232"/>
<stop offset="1" stop-color="#E53B06"/>
</linearGradient>
<linearGradient id="paint7_linear" x1="37" y1="81.9636" x2="41" y2="81.9636" gradientUnits="userSpaceOnUse">
<stop stop-color="#667DE8"/>
<stop offset="0.47152" stop-color="#6E63C5"/>
<stop offset="1" stop-color="#754DA5"/>
</linearGradient>
<linearGradient id="paint8_linear" x1="297" y1="134.964" x2="301" y2="134.964" gradientUnits="userSpaceOnUse">
<stop stop-color="#667DE8"/>
<stop offset="0.47152" stop-color="#6E63C5"/>
<stop offset="1" stop-color="#754DA5"/>
</linearGradient>
<linearGradient id="paint9_linear" x1="297" y1="134.964" x2="301" y2="134.964" gradientUnits="userSpaceOnUse">
<stop stop-color="#ED6F9F"/>
<stop offset="0.47152" stop-color="#ED7D85"/>
<stop offset="1" stop-color="#EC8B6A"/>
</linearGradient>
<linearGradient id="paint10_linear" x1="297" y1="134.964" x2="301" y2="134.964" gradientUnits="userSpaceOnUse">
<stop stop-color="#F4CB60"/>
<stop offset="0.47152" stop-color="#EC8232"/>
<stop offset="1" stop-color="#E53B06"/>
</linearGradient>
<linearGradient id="paint11_linear" x1="16" y1="122.945" x2="22" y2="122.945" gradientUnits="userSpaceOnUse">
<stop stop-color="#667DE8"/>
<stop offset="0.47152" stop-color="#6E63C5"/>
<stop offset="1" stop-color="#754DA5"/>
</linearGradient>
<linearGradient id="paint12_linear" x1="357" y1="124.945" x2="363" y2="124.945" gradientUnits="userSpaceOnUse">
<stop stop-color="#667DE8"/>
<stop offset="0.47152" stop-color="#6E63C5"/>
<stop offset="1" stop-color="#754DA5"/>
</linearGradient>
<linearGradient id="paint13_linear" x1="357" y1="124.945" x2="363" y2="124.945" gradientUnits="userSpaceOnUse">
<stop stop-color="#ED6F9F"/>
<stop offset="0.47152" stop-color="#ED7D85"/>
<stop offset="1" stop-color="#EC8B6A"/>
</linearGradient>
<linearGradient id="paint14_linear" x1="357" y1="124.945" x2="363" y2="124.945" gradientUnits="userSpaceOnUse">
<stop stop-color="#F4CB60"/>
<stop offset="0.47152" stop-color="#EC8232"/>
<stop offset="1" stop-color="#E53B06"/>
</linearGradient>
</defs>
</svg>
