<svg width="310" height="126" viewBox="0 0 310 126" fill="none" xmlns="http://www.w3.org/2000/svg">
<g clip-path="url(#clip0)">
<path d="M18.5684 -334.938C20.5014 -338.286 24.7825 -339.433 28.1305 -337.5L565.42 -27.2959C568.768 -25.3629 569.915 -21.0818 567.982 -17.7338L394.352 283.002C392.131 286.849 386.236 284.557 387.196 280.22C410.706 174.047 321.414 76.8612 213.634 91.3142L102.256 106.25C1.55168 114.15 -96.732 72.7338 -161.409 -4.85839L-167.288 -11.9108C-167.516 -12.1849 -167.549 -12.5723 -167.371 -12.8814L18.5684 -334.938Z" fill="#7C42DE"/>
<path d="M-126 -279C-126 -282.866 -122.866 -286 -119 -286H430C433.866 -286 437 -282.866 437 -279V21.0682C437 24.9896 431.491 25.8576 430.285 22.1261C400.994 -68.5265 291.095 -103.291 214.997 -45.9767L134.082 14.9664C60.0062 64.6638 -33.2773 76.2041 -117.23 46.0567L-125.49 43.0908C-125.796 42.9809 -126 42.6907 -126 42.3655V-279Z" fill="white" fill-opacity="0.1"/>
<circle cx="67" cy="103" r="5" fill="#C4C4C4"/>
<circle cx="67" cy="103" r="5" fill="url(#paint0_linear)"/>
<circle cx="67" cy="103" r="5" fill="url(#paint1_linear)"/>
<circle cx="67" cy="103" r="5" fill="url(#paint2_linear)"/>
<circle cx="255" cy="78" r="5" transform="rotate(-90 255 78)" fill="#C4C4C4"/>
<circle cx="255" cy="78" r="5" transform="rotate(-90 255 78)" fill="url(#paint3_linear)"/>
<circle cx="255" cy="78" r="5" transform="rotate(-90 255 78)" fill="url(#paint4_linear)"/>
<circle cx="255" cy="78" r="5" transform="rotate(-90 255 78)" fill="url(#paint5_linear)"/>
<circle cx="255" cy="78" r="5" transform="rotate(-90 255 78)" fill="url(#paint6_linear)"/>
<circle cx="35" cy="72" r="2" fill="#C4C4C4"/>
<circle cx="35" cy="72" r="2" fill="url(#paint7_linear)"/>
<circle cx="35" cy="72" r="2" fill="url(#paint8_linear)"/>
<circle cx="35" cy="72" r="2" fill="url(#paint9_linear)"/>
<circle cx="224" cy="110" r="2" transform="rotate(-90 224 110)" fill="#C4C4C4"/>
<circle cx="224" cy="110" r="2" transform="rotate(-90 224 110)" fill="url(#paint10_linear)"/>
<circle cx="224" cy="110" r="2" transform="rotate(-90 224 110)" fill="url(#paint11_linear)"/>
<circle cx="224" cy="110" r="2" transform="rotate(-90 224 110)" fill="url(#paint12_linear)"/>
<circle cx="224" cy="110" r="2" transform="rotate(-90 224 110)" fill="url(#paint13_linear)"/>
<circle cx="25" cy="123" r="3" fill="#C4C4C4"/>
<circle cx="25" cy="123" r="3" fill="url(#paint14_linear)"/>
<circle cx="25" cy="123" r="3" fill="url(#paint15_linear)"/>
<circle cx="25" cy="123" r="3" fill="url(#paint16_linear)"/>
<circle cx="275" cy="120" r="3" transform="rotate(-90 275 120)" fill="#C4C4C4"/>
<circle cx="275" cy="120" r="3" transform="rotate(-90 275 120)" fill="url(#paint17_linear)"/>
<circle cx="275" cy="120" r="3" transform="rotate(-90 275 120)" fill="url(#paint18_linear)"/>
<circle cx="275" cy="120" r="3" transform="rotate(-90 275 120)" fill="url(#paint19_linear)"/>
<circle cx="275" cy="120" r="3" transform="rotate(-90 275 120)" fill="url(#paint20_linear)"/>
</g>
<defs>
<linearGradient id="paint0_linear" x1="62" y1="102.909" x2="72" y2="102.909" gradientUnits="userSpaceOnUse">
<stop stop-color="#667DE8"/>
<stop offset="0.47152" stop-color="#6E63C5"/>
<stop offset="1" stop-color="#754DA5"/>
</linearGradient>
<linearGradient id="paint1_linear" x1="62" y1="102.909" x2="72" y2="102.909" gradientUnits="userSpaceOnUse">
<stop stop-color="#ED6F9F"/>
<stop offset="0.47152" stop-color="#ED7D85"/>
<stop offset="1" stop-color="#EC8B6A"/>
</linearGradient>
<linearGradient id="paint2_linear" x1="62" y1="102.909" x2="72" y2="102.909" gradientUnits="userSpaceOnUse">
<stop stop-color="#F4CB60"/>
<stop offset="0.47152" stop-color="#EC8232"/>
<stop offset="1" stop-color="#E53B06"/>
</linearGradient>
<linearGradient id="paint3_linear" x1="250" y1="77.9091" x2="260" y2="77.9091" gradientUnits="userSpaceOnUse">
<stop stop-color="#667DE8"/>
<stop offset="0.47152" stop-color="#6E63C5"/>
<stop offset="1" stop-color="#754DA5"/>
</linearGradient>
<linearGradient id="paint4_linear" x1="250" y1="77.9091" x2="260" y2="77.9091" gradientUnits="userSpaceOnUse">
<stop stop-color="#ED6F9F"/>
<stop offset="0.47152" stop-color="#ED7D85"/>
<stop offset="1" stop-color="#EC8B6A"/>
</linearGradient>
<linearGradient id="paint5_linear" x1="250" y1="77.9091" x2="260" y2="77.9091" gradientUnits="userSpaceOnUse">
<stop stop-color="#F4CB60"/>
<stop offset="0.47152" stop-color="#EC8232"/>
<stop offset="1" stop-color="#E53B06"/>
</linearGradient>
<linearGradient id="paint6_linear" x1="250" y1="77.9091" x2="260" y2="77.9091" gradientUnits="userSpaceOnUse">
<stop stop-color="#26ACDE"/>
<stop offset="0.47152" stop-color="#31C5BE"/>
<stop offset="1" stop-color="#3EE099"/>
</linearGradient>
<linearGradient id="paint7_linear" x1="33" y1="71.9636" x2="37" y2="71.9636" gradientUnits="userSpaceOnUse">
<stop stop-color="#667DE8"/>
<stop offset="0.47152" stop-color="#6E63C5"/>
<stop offset="1" stop-color="#754DA5"/>
</linearGradient>
<linearGradient id="paint8_linear" x1="33" y1="71.9636" x2="37" y2="71.9636" gradientUnits="userSpaceOnUse">
<stop stop-color="#ED6F9F"/>
<stop offset="0.47152" stop-color="#ED7D85"/>
<stop offset="1" stop-color="#EC8B6A"/>
</linearGradient>
<linearGradient id="paint9_linear" x1="33" y1="71.9636" x2="37" y2="71.9636" gradientUnits="userSpaceOnUse">
<stop stop-color="#F4CB60"/>
<stop offset="0.47152" stop-color="#EC8232"/>
<stop offset="1" stop-color="#E53B06"/>
</linearGradient>
<linearGradient id="paint10_linear" x1="222" y1="109.964" x2="226" y2="109.964" gradientUnits="userSpaceOnUse">
<stop stop-color="#667DE8"/>
<stop offset="0.47152" stop-color="#6E63C5"/>
<stop offset="1" stop-color="#754DA5"/>
</linearGradient>
<linearGradient id="paint11_linear" x1="222" y1="109.964" x2="226" y2="109.964" gradientUnits="userSpaceOnUse">
<stop stop-color="#ED6F9F"/>
<stop offset="0.47152" stop-color="#ED7D85"/>
<stop offset="1" stop-color="#EC8B6A"/>
</linearGradient>
<linearGradient id="paint12_linear" x1="222" y1="109.964" x2="226" y2="109.964" gradientUnits="userSpaceOnUse">
<stop stop-color="#F4CB60"/>
<stop offset="0.47152" stop-color="#EC8232"/>
<stop offset="1" stop-color="#E53B06"/>
</linearGradient>
<linearGradient id="paint13_linear" x1="222" y1="109.964" x2="226" y2="109.964" gradientUnits="userSpaceOnUse">
<stop stop-color="#26ACDE"/>
<stop offset="0.47152" stop-color="#31C5BE"/>
<stop offset="1" stop-color="#3EE099"/>
</linearGradient>
<linearGradient id="paint14_linear" x1="22" y1="122.945" x2="28" y2="122.945" gradientUnits="userSpaceOnUse">
<stop stop-color="#667DE8"/>
<stop offset="0.47152" stop-color="#6E63C5"/>
<stop offset="1" stop-color="#754DA5"/>
</linearGradient>
<linearGradient id="paint15_linear" x1="22" y1="122.945" x2="28" y2="122.945" gradientUnits="userSpaceOnUse">
<stop stop-color="#ED6F9F"/>
<stop offset="0.47152" stop-color="#ED7D85"/>
<stop offset="1" stop-color="#EC8B6A"/>
</linearGradient>
<linearGradient id="paint16_linear" x1="22" y1="122.945" x2="28" y2="122.945" gradientUnits="userSpaceOnUse">
<stop stop-color="#F4CB60"/>
<stop offset="0.47152" stop-color="#EC8232"/>
<stop offset="1" stop-color="#E53B06"/>
</linearGradient>
<linearGradient id="paint17_linear" x1="272" y1="119.945" x2="278" y2="119.945" gradientUnits="userSpaceOnUse">
<stop stop-color="#667DE8"/>
<stop offset="0.47152" stop-color="#6E63C5"/>
<stop offset="1" stop-color="#754DA5"/>
</linearGradient>
<linearGradient id="paint18_linear" x1="272" y1="119.945" x2="278" y2="119.945" gradientUnits="userSpaceOnUse">
<stop stop-color="#ED6F9F"/>
<stop offset="0.47152" stop-color="#ED7D85"/>
<stop offset="1" stop-color="#EC8B6A"/>
</linearGradient>
<linearGradient id="paint19_linear" x1="272" y1="119.945" x2="278" y2="119.945" gradientUnits="userSpaceOnUse">
<stop stop-color="#F4CB60"/>
<stop offset="0.47152" stop-color="#EC8232"/>
<stop offset="1" stop-color="#E53B06"/>
</linearGradient>
<linearGradient id="paint20_linear" x1="272" y1="119.945" x2="278" y2="119.945" gradientUnits="userSpaceOnUse">
<stop stop-color="#26ACDE"/>
<stop offset="0.47152" stop-color="#31C5BE"/>
<stop offset="1" stop-color="#3EE099"/>
</linearGradient>
<clipPath id="clip0">
<rect width="310" height="126" fill="white"/>
</clipPath>
</defs>
</svg>
