<svg width="375" height="386" viewBox="0 0 375 386" fill="none" xmlns="http://www.w3.org/2000/svg">
<path d="M18.5684 -273.381C20.5014 -276.729 24.7825 -277.876 28.1305 -275.943L565.42 34.2607C568.768 36.1937 569.915 40.4748 567.982 43.8228L394.352 344.559C392.131 348.405 386.236 346.114 387.196 341.777C410.706 235.604 321.414 138.418 213.634 152.871L102.256 167.806C1.55168 175.707 -96.732 134.29 -161.409 56.6982L-167.288 49.6458C-167.516 49.3717 -167.549 48.9842 -167.371 48.6752L18.5684 -273.381Z" fill="#7C42DE"/>
<path d="M18.5684 -273.381C20.5014 -276.729 24.7825 -277.876 28.1305 -275.943L565.42 34.2607C568.768 36.1937 569.915 40.4748 567.982 43.8228L394.352 344.559C392.131 348.405 386.236 346.114 387.196 341.777C410.706 235.604 321.414 138.418 213.634 152.871L102.256 167.806C1.55168 175.707 -96.732 134.29 -161.409 56.6982L-167.288 49.6458C-167.516 49.3717 -167.549 48.9842 -167.371 48.6752L18.5684 -273.381Z" fill="url(#paint0_linear)"/>
<defs>
<linearGradient id="paint0_linear" x1="-85.5438" y1="-93.0537" x2="463.87" y2="224.15" gradientUnits="userSpaceOnUse">
<stop stop-color="#667DE8"/>
<stop offset="0.47152" stop-color="#6E63C5"/>
<stop offset="1" stop-color="#754DA5"/>
</linearGradient>
</defs>
</svg>
