<svg width="375" height="451" viewBox="0 0 375 451" fill="none" xmlns="http://www.w3.org/2000/svg">
<path d="M18.5684 -208.381C20.5014 -211.729 24.7825 -212.876 28.1305 -210.943L565.42 99.2607C568.768 101.194 569.915 105.475 567.982 108.823L394.352 409.559C392.131 413.405 386.236 411.114 387.196 406.777C410.706 300.604 321.414 203.418 213.634 217.871L102.256 232.806C1.55168 240.707 -96.732 199.29 -161.409 121.698L-167.288 114.646C-167.516 114.372 -167.549 113.984 -167.371 113.675L18.5684 -208.381Z" fill="#7C42DE"/>
<path d="M18.5684 -208.381C20.5014 -211.729 24.7825 -212.876 28.1305 -210.943L565.42 99.2607C568.768 101.194 569.915 105.475 567.982 108.823L394.352 409.559C392.131 413.405 386.236 411.114 387.196 406.777C410.706 300.604 321.414 203.418 213.634 217.871L102.256 232.806C1.55168 240.707 -96.732 199.29 -161.409 121.698L-167.288 114.646C-167.516 114.372 -167.549 113.984 -167.371 113.675L18.5684 -208.381Z" fill="url(#paint0_linear)"/>
<defs>
<linearGradient id="paint0_linear" x1="-85.5438" y1="-28.0537" x2="463.87" y2="289.15" gradientUnits="userSpaceOnUse">
<stop stop-color="#667DE8"/>
<stop offset="0.47152" stop-color="#6E63C5"/>
<stop offset="1" stop-color="#754DA5"/>
</linearGradient>
</defs>
</svg>
