<svg width="92" height="91" viewBox="0 0 92 91" fill="none" xmlns="http://www.w3.org/2000/svg">
<path d="M66.0322 45.6305V25.5982C71.9677 28.1935 78.6451 31.1613 88.2903 36.3548C88.2903 36.3548 92 37.8387 92 41.5484C92 45.2581 89.7742 46.043 88.2903 47.1144C81.6129 51.9355 74.1935 55.2756 74.1935 55.2756C70.0387 56.4627 66.0322 51.9355 66.0322 45.6305Z" fill="white"/>
<path d="M0 84.5806V4.08172C0.741935 1.11398 2.22581 -2.59623 11.871 2.59785L40.0645 14.4689V50.8237C40.8065 57.129 44.5161 63.4369 51.9355 67.1463L11.871 89.0323C2.37419 93.1871 0.247312 87.3011 0 84.5806Z" fill="white"/>
</svg>
