<svg width="104" height="22" viewBox="0 0 104 22" fill="none" xmlns="http://www.w3.org/2000/svg">
<g clip-path="url(#clip0)">
<path fill-rule="evenodd" clip-rule="evenodd" d="M86.8116 16.6354L86.5744 16.4326C85.9997 15.9424 85.8986 15.0459 86.4225 14.4711L92.5756 7.438C93.0665 6.86394 93.9623 6.76219 94.5371 7.28675L94.7742 7.48888C95.349 7.97975 95.4501 8.87557 94.9255 9.45032L88.7724 16.4834C88.2822 17.0575 87.4201 17.1256 86.8116 16.6347V16.6354Z" fill="url(#paint0_linear)"/>
<path opacity="0.4" fill-rule="evenodd" clip-rule="evenodd" d="M91.7476 8.65561L91.6293 8.52017L90.6826 9.6023L90.7837 9.72055C92.4062 11.3437 91.7139 12.9834 91.3419 13.5582L91.4767 13.4062C91.6967 13.1525 92.0349 12.7641 92.3897 12.3406C92.7616 11.6985 93.2862 10.177 91.7476 8.65561Z" fill="url(#paint1_linear)"/>
<path opacity="0.4" fill-rule="evenodd" clip-rule="evenodd" d="M93.7769 10.769L94.0306 10.4816C94.0471 10.4473 94.0808 10.4143 94.098 10.3799C93.8271 10.6845 93.5397 11.0055 93.2695 11.3266C93.4723 11.1066 93.6415 10.921 93.7769 10.769Z" fill="url(#paint2_radial)"/>
<path fill-rule="evenodd" clip-rule="evenodd" d="M94.9603 7.65874L88.8072 0.625613C88.3156 0.050863 87.4198 -0.050887 86.8451 0.473676L86.6079 0.676488C86.0338 1.16668 85.9327 2.06249 86.4573 2.63724L91.6466 8.52018L91.7648 8.65561C93.3034 10.1942 92.7796 11.7157 92.3904 12.3578C92.695 12.0031 92.9996 11.6483 93.2869 11.3266C93.5571 11.0055 93.8445 10.6844 94.1154 10.3799C94.3856 10.076 94.6393 9.78862 94.8084 9.60299C95.3996 9.02755 95.4842 8.2328 94.9603 7.65805V7.65874Z" fill="url(#paint3_linear)"/>
<path fill-rule="evenodd" clip-rule="evenodd" d="M94.6221 16.6354L94.3849 16.4326C93.8101 15.9424 93.7091 15.0459 94.2336 14.4711L100.387 7.438C100.877 6.86394 101.773 6.76219 102.347 7.28675L102.585 7.48888C103.159 7.97975 103.26 8.87557 102.737 9.45032L96.5835 16.4834C96.0926 17.0575 95.2305 17.1256 94.6221 16.6347V16.6354Z" fill="url(#paint4_linear)"/>
<path opacity="0.4" fill-rule="evenodd" clip-rule="evenodd" d="M99.6255 8.58826L99.5072 8.45282L98.5605 9.53495L98.6623 9.6532C100.285 11.2757 99.5918 12.9161 99.2199 13.4908L99.3553 13.3389C99.5753 13.0845 99.9129 12.6961 100.268 12.2733C100.64 11.6311 101.164 10.1097 99.6255 8.58826Z" fill="url(#paint5_linear)"/>
<path opacity="0.4" fill-rule="evenodd" clip-rule="evenodd" d="M101.57 10.769L101.825 10.4816C101.841 10.4473 101.875 10.4143 101.892 10.3799C101.621 10.6845 101.334 11.0055 101.063 11.3266C101.266 11.1066 101.452 10.921 101.57 10.769Z" fill="url(#paint6_radial)"/>
<path fill-rule="evenodd" clip-rule="evenodd" d="M102.755 7.65874L96.6008 0.625613C96.1106 0.050863 95.2141 -0.050887 94.6393 0.473676L94.4028 0.676488C93.8281 1.16668 93.7264 2.06249 94.2509 2.63724L99.4408 8.52018L99.5591 8.65561C101.098 10.1942 100.573 11.7157 100.185 12.3578C100.489 12.0031 100.793 11.6483 101.081 11.3266C101.351 11.0055 101.639 10.6844 101.909 10.3799C102.18 10.076 102.433 9.78862 102.602 9.60299C103.194 9.02755 103.278 8.2328 102.755 7.65805V7.65874Z" fill="url(#paint7_linear)"/>
<path fill-rule="evenodd" clip-rule="evenodd" d="M0.389516 16.5682C0.152328 16.3317 0.0175781 15.9769 0.0175781 15.5369V1.62397C0.0175781 1.16747 0.152328 0.812717 0.439703 0.524655C0.727078 0.23728 1.08252 0.10253 1.53902 0.10253C1.99552 0.10253 2.40114 0.23728 2.67133 0.524655C2.9587 0.81203 3.09414 1.16747 3.09414 1.62397V14.4555H9.73814C10.6848 14.4555 11.175 14.8776 11.175 15.7067C11.175 16.5345 10.6848 16.9573 9.73814 16.9573H1.45377C0.997953 16.9573 0.642516 16.8218 0.389516 16.5682ZM13.5758 16.6699C13.2884 16.3825 13.153 16.0099 13.153 15.5369V1.60678C13.153 1.15028 13.2884 0.79553 13.5758 0.508155C13.8631 0.22078 14.2179 0.0853424 14.6744 0.0853424C15.1309 0.0853424 15.5365 0.22078 15.8074 0.508155C16.0948 0.79553 16.2302 1.15028 16.2302 1.60678V15.5369C16.2302 15.9934 16.0948 16.3825 15.8074 16.6699C15.52 16.9573 15.1474 17.0927 14.6744 17.0927C14.2344 17.0927 13.8631 16.9573 13.5758 16.6699Z" fill="#4B4C4B"/>
<path d="M33.5412 19.2727C33.7104 19.5601 33.8114 19.8303 33.8114 20.1183C33.8114 20.4731 33.6767 20.777 33.3893 20.997C33.1019 21.217 32.7637 21.3517 32.3917 21.3517C32.1044 21.3517 31.8335 21.2843 31.5805 21.1489C31.3433 21.0141 31.1233 20.8106 30.9549 20.5576L29.5682 18.258C29.3482 17.8867 29.0608 17.6158 28.706 17.4467C28.3513 17.2776 27.8948 17.1765 27.32 17.1765C25.6797 17.1765 24.2765 16.8211 23.0768 16.1453C21.8764 15.4351 20.9634 14.4375 20.3206 13.1698C19.6785 11.8676 19.3574 10.3462 19.3574 8.62196C19.3574 6.88052 19.6957 5.37627 20.3206 4.07415C20.9634 2.78921 21.8929 1.80884 23.0768 1.09865C24.2765 0.389148 25.6797 0.0673981 27.32 0.0673981C28.926 0.0673981 30.3457 0.422836 31.5296 1.09865C32.73 1.80884 33.6423 2.8064 34.2851 4.07415C34.9272 5.35977 35.2483 6.88052 35.2483 8.62196C35.2483 10.4988 34.877 12.1385 34.116 13.4736C33.3721 14.8266 32.29 15.807 30.8868 16.4326C31.6142 16.6691 32.2054 17.2095 32.6956 18.005L33.5412 19.2727ZM30.8875 13.1361C31.7489 12.0705 32.1889 10.549 32.1889 8.58827C32.1889 6.59315 31.7489 5.1054 30.8868 4.04046C30.0247 2.97484 28.8415 2.46815 27.2864 2.46815C25.7305 2.46815 24.5302 2.99202 23.668 4.04046C22.8059 5.10609 22.3666 6.59315 22.3666 8.58827C22.3666 10.5827 22.8066 12.0705 23.668 13.1361C24.5302 14.201 25.7477 14.7249 27.2864 14.7249C28.8243 14.7249 30.0247 14.201 30.8868 13.1361H30.8875ZM38.9677 16.6691C38.6803 16.3818 38.5455 16.0091 38.5455 15.5361V1.6569C38.5455 1.2004 38.6803 0.845648 38.9512 0.591273C39.2214 0.354773 39.5768 0.220023 40.0333 0.220023H45.8654C47.6577 0.220023 49.0437 0.659336 50.0412 1.57234C51.0381 2.45165 51.5455 3.7194 51.5455 5.3254C51.5455 6.9314 51.0388 8.19915 50.0412 9.09565C49.0444 10.008 47.6577 10.448 45.8654 10.448H41.6221V15.5533C41.6221 16.0435 41.4867 16.4155 41.1993 16.6856C40.9119 16.9737 40.54 17.1085 40.067 17.1085C39.6105 17.092 39.2214 16.9565 38.9677 16.6685V16.6691ZM45.4769 8.11459C47.5731 8.11459 48.638 7.18509 48.638 5.35909C48.638 3.53309 47.5724 2.60359 45.4769 2.60359H41.6214V8.09809L45.4762 8.11459H45.4769ZM67.7244 15.739C67.7244 16.0944 67.5725 16.399 67.2844 16.6691C66.9977 16.9056 66.6595 17.0404 66.2703 17.0404C66.0338 17.0404 65.7802 16.9737 65.5608 16.8383C65.3408 16.7028 65.1552 16.4828 65.0363 16.2127L63.5994 13.0343H55.282L53.8452 16.2127C53.7097 16.5 53.5406 16.7028 53.3206 16.8383C53.1006 16.9737 52.8641 17.0411 52.5939 17.0411C52.2392 17.0411 51.8837 16.9056 51.597 16.6691C51.2925 16.4326 51.157 16.1109 51.157 15.739C51.157 15.5361 51.2079 15.3168 51.2925 15.1133L57.8512 1.03127C57.9867 0.726711 58.2067 0.473711 58.5112 0.304586C58.7986 0.135461 59.1025 0.0673981 59.4407 0.0673981C59.779 0.0673981 60.0828 0.151961 60.3702 0.304586C60.6583 0.473711 60.8776 0.710211 61.0302 1.03127L67.6062 15.114C67.6735 15.334 67.7244 15.5196 67.7244 15.7396V15.739ZM56.3133 10.6673H62.5853L59.4407 3.63415L56.3126 10.6673H56.3133Z" fill="#4B4C4B"/>
<path fill-rule="evenodd" clip-rule="evenodd" d="M79.5582 0.101813C79.9137 0.101813 80.2347 0.236563 80.5221 0.523938C80.8095 0.811313 80.9449 1.11588 80.9449 1.5215C80.9449 1.82606 80.8267 2.14713 80.5895 2.4345L75.1967 9.01112V15.5871C75.1967 16.0773 75.0613 16.4492 74.7739 16.7366C74.4865 17.0239 74.1318 17.1422 73.6925 17.1422C73.236 17.1422 72.8469 17.0074 72.5595 16.7366C72.2721 16.4664 72.1367 16.0944 72.1367 15.5871V9.01112L66.7776 2.418C66.5411 2.12994 66.4229 1.82606 66.4229 1.505C66.4229 1.13306 66.5576 0.794813 66.8457 0.507438C67.133 0.220063 67.4713 0.0846252 67.8089 0.0846252C68.2145 0.0846252 68.5362 0.25375 68.8236 0.6085L73.6753 6.62687L78.5105 0.6085C78.7978 0.27025 79.1526 0.101813 79.5582 0.101813Z" fill="#4B4C4B"/>
</g>
<defs>
<linearGradient id="paint0_linear" x1="87.2096" y1="14.3355" x2="94.4686" y2="10.1501" gradientUnits="userSpaceOnUse">
<stop stop-color="#1FADC3"/>
<stop offset="0.7072" stop-color="#36B98F"/>
</linearGradient>
<linearGradient id="paint1_linear" x1="91.6896" y1="10.4387" x2="92.4362" y2="9.81515" gradientUnits="userSpaceOnUse">
<stop stop-color="#123F06" stop-opacity="0"/>
<stop offset="1" stop-color="#123F06"/>
</linearGradient>
<radialGradient id="paint2_radial" cx="0" cy="0" r="1" gradientUnits="userSpaceOnUse" gradientTransform="translate(90.3855 10.3065) scale(4.12226 4.1218)">
<stop offset="0.4185" stop-color="#123F06" stop-opacity="0"/>
<stop offset="1" stop-color="#123F06"/>
</radialGradient>
<linearGradient id="paint3_linear" x1="87.5354" y1="3.08534" x2="94.078" y2="7.08526" gradientUnits="userSpaceOnUse">
<stop stop-color="#9FDB57"/>
<stop offset="1" stop-color="#71CA5E"/>
</linearGradient>
<linearGradient id="paint4_linear" x1="95.0139" y1="14.3398" x2="102.273" y2="10.1544" gradientUnits="userSpaceOnUse">
<stop stop-color="#1FADC3"/>
<stop offset="0.7072" stop-color="#36B98F"/>
</linearGradient>
<linearGradient id="paint5_linear" x1="99.5676" y1="10.3714" x2="100.314" y2="9.74776" gradientUnits="userSpaceOnUse">
<stop stop-color="#123F06" stop-opacity="0"/>
<stop offset="1" stop-color="#123F06"/>
</linearGradient>
<radialGradient id="paint6_radial" cx="0" cy="0" r="1" gradientUnits="userSpaceOnUse" gradientTransform="translate(98.1864 10.3065) scale(4.12222 4.1218)">
<stop offset="0.4185" stop-color="#123F06" stop-opacity="0"/>
<stop offset="1" stop-color="#123F06"/>
</radialGradient>
<linearGradient id="paint7_linear" x1="95.3322" y1="3.0884" x2="101.875" y2="7.08848" gradientUnits="userSpaceOnUse">
<stop stop-color="#9FDB57"/>
<stop offset="1" stop-color="#71CA5E"/>
</linearGradient>
<clipPath id="clip0">
<rect width="103.125" height="22" fill="white"/>
</clipPath>
</defs>
</svg>
