<svg width="287" height="250" viewBox="0 0 287 250" fill="none" xmlns="http://www.w3.org/2000/svg">
<g opacity="0.6" clip-path="url(#clip0)">
<path d="M283.94 144.523C283.705 143.317 283.462 142.119 283.213 140.941C276.867 111.089 264.085 80.2597 241.299 59.2197C231.427 50.1026 219.49 43.147 206.188 40.6391C189.949 37.5769 173.066 41.8168 158.143 48.9248C143.221 56.0329 129.829 65.9051 116.001 74.9529C107.071 80.7931 97.6282 86.4255 87.0909 88.1229C74.4752 90.1597 61.5685 86.3493 48.842 87.5548C28.8897 89.453 11.2997 104.334 4.11551 123.046C-3.06871 141.759 -0.470754 163.478 8.99968 181.144C18.4701 198.81 34.3211 212.569 52.1882 221.644C76.9554 234.232 106.247 238.16 133.175 231.336C146.311 228.004 159.044 222.185 172.595 221.942C189.402 221.644 205.142 229.958 221.797 232.258C237.426 234.412 254.095 230.879 266.53 221.166C289.579 203.174 288.935 170.475 283.94 144.523Z" fill="#B7B1E1"/>
<path opacity="0.7" d="M283.94 144.523C283.705 143.317 283.462 142.119 283.213 140.941C276.867 111.089 264.085 80.2597 241.299 59.2197C231.427 50.1026 219.49 43.147 206.188 40.6391C189.949 37.5769 173.066 41.8168 158.143 48.9248C143.221 56.0329 129.829 65.9051 116.001 74.9529C107.071 80.7931 97.6282 86.4255 87.0909 88.1229C74.4752 90.1597 61.5685 86.3493 48.842 87.5548C28.8897 89.453 11.2997 104.334 4.11551 123.046C-3.06871 141.759 -0.470754 163.478 8.99968 181.144C18.4701 198.81 34.3211 212.569 52.1882 221.644C76.9554 234.232 106.247 238.16 133.175 231.336C146.311 228.004 159.044 222.185 172.595 221.942C189.402 221.644 205.142 229.958 221.797 232.258C237.426 234.412 254.095 230.879 266.53 221.166C289.579 203.174 288.935 170.475 283.94 144.523Z" fill="white"/>
<path d="M235.348 71.2742C233.096 70.048 232.071 71.0664 231.253 70.048C230.436 69.0227 233.505 66.3624 227.36 63.702C227.36 63.702 226.951 57.9657 218.554 57.7648C210.158 57.557 212.409 63.5011 210.158 64.9352C207.906 66.3693 207.29 64.1177 205.038 65.5518C202.786 66.9859 203.812 69.854 201.969 70.2628C200.126 70.6715 197.667 68.4199 195.415 69.854C193.164 71.2881 193.164 72.5143 192.138 72.5143C191.113 72.5143 189.069 71.6968 187.836 72.5143C186.61 73.3318 185.176 74.3571 185.176 74.3571H236.989C236.983 74.3433 237.599 72.5005 235.348 71.2742Z" fill="white"/>
<path opacity="0.5" d="M235.348 71.2742C233.096 70.048 232.071 71.0664 231.253 70.048C230.436 69.0227 233.505 66.3624 227.36 63.702C227.36 63.702 226.951 57.9657 218.554 57.7648C210.158 57.557 212.409 63.5011 210.158 64.9352C207.906 66.3693 207.29 64.1177 205.038 65.5518C202.786 66.9859 203.812 69.854 201.969 70.2628C200.126 70.6715 197.667 68.4199 195.415 69.854C193.164 71.2881 193.164 72.5143 192.138 72.5143C191.113 72.5143 189.069 71.6968 187.836 72.5143C186.61 73.3318 185.176 74.3571 185.176 74.3571H236.989C236.983 74.3433 237.599 72.5005 235.348 71.2742Z" fill="white"/>
<path d="M147.592 207.061C145.34 205.835 144.315 206.853 143.497 205.835C142.68 204.809 145.749 202.149 139.604 199.489C139.604 199.489 139.195 193.752 130.799 193.552C122.402 193.344 124.653 199.288 122.402 200.722C120.15 202.156 119.534 199.904 117.282 201.339C115.031 202.773 116.056 205.641 114.213 206.049C112.37 206.458 109.911 204.207 107.659 205.641C105.408 207.075 105.408 208.301 104.382 208.301C103.357 208.301 101.313 207.484 100.08 208.301C98.854 209.119 97.4199 210.144 97.4199 210.144H149.234C149.234 210.13 149.843 208.287 147.592 207.061Z" fill="white"/>
<path opacity="0.5" d="M147.592 207.061C145.34 205.835 144.315 206.853 143.497 205.835C142.68 204.809 145.749 202.149 139.604 199.489C139.604 199.489 139.195 193.752 130.799 193.552C122.402 193.344 124.653 199.288 122.402 200.722C120.15 202.156 119.534 199.904 117.282 201.339C115.031 202.773 116.056 205.641 114.213 206.049C112.37 206.458 109.911 204.207 107.659 205.641C105.408 207.075 105.408 208.301 104.382 208.301C103.357 208.301 101.313 207.484 100.08 208.301C98.854 209.119 97.4199 210.144 97.4199 210.144H149.234C149.234 210.13 149.843 208.287 147.592 207.061Z" fill="white"/>
<path d="M105.727 184.254C102.2 182.335 100.6 183.936 99.3182 182.335C98.0366 180.735 102.845 176.571 93.2286 172.401C93.2286 172.401 92.5913 163.429 79.449 163.11C66.3138 162.792 69.84 172.082 66.3137 174.327C62.7874 176.571 61.8314 173.045 58.3051 175.29C54.7788 177.534 56.3791 182.017 53.4971 182.661C50.6151 183.298 46.7702 179.779 43.2439 182.017C39.7176 184.254 39.7176 186.18 38.1172 186.18C36.5169 186.18 33.3093 184.899 31.3902 186.18C29.4643 187.462 27.2266 189.062 27.2266 189.062H108.29C108.29 189.062 109.253 186.18 105.727 184.254Z" fill="white"/>
<path opacity="0.5" d="M105.727 184.254C102.2 182.335 100.6 183.936 99.3182 182.335C98.0366 180.735 102.845 176.571 93.2286 172.401C93.2286 172.401 92.5913 163.429 79.449 163.11C66.3138 162.792 69.84 172.082 66.3137 174.327C62.7874 176.571 61.8314 173.045 58.3051 175.29C54.7788 177.534 56.3791 182.017 53.4971 182.661C50.6151 183.298 46.7702 179.779 43.2439 182.017C39.7176 184.254 39.7176 186.18 38.1172 186.18C36.5169 186.18 33.3093 184.899 31.3902 186.18C29.4643 187.462 27.2266 189.062 27.2266 189.062H108.29C108.29 189.062 109.253 186.18 105.727 184.254Z" fill="white"/>
<path d="M142.729 0.346436C118.543 0.346436 98.8681 17.9918 98.1892 39.9878L79.1236 50.4282L69.1128 40.9093L54.6474 62.8707L44.5742 62.4412L49.7424 82.4836L50.1858 65.9882L57.3146 67.3253L69.1059 54.9313L81.1258 64.4433L99.9627 52.6728C105.394 69.6046 122.471 81.9709 142.722 81.9709C167.337 81.9709 187.289 63.6951 187.289 41.1587C187.296 18.6222 167.343 0.346436 142.729 0.346436Z" fill="#263238" stroke="#263238" stroke-miterlimit="10" stroke-linecap="round" stroke-linejoin="round"/>
<path d="M182.211 68.4546H101.806C99.5748 68.4546 97.7666 66.6464 97.7666 64.4157V18.6638C97.7666 16.4331 99.5748 14.6249 101.806 14.6249H182.218C184.448 14.6249 186.257 16.4331 186.257 18.6638V64.4226C186.25 66.6464 184.441 68.4546 182.211 68.4546Z" fill="#B7B1E1" stroke="#263238" stroke-width="2" stroke-miterlimit="10" stroke-linecap="round" stroke-linejoin="round"/>
<path d="M145.541 40.1957L186.25 19.606V18.6638C186.25 16.4331 184.441 14.6249 182.211 14.6249H101.806C99.5748 14.6249 97.7666 16.4331 97.7666 18.6638V19.7792L137.734 40.2858C140.2 41.4913 143.096 41.4566 145.541 40.1957Z" fill="white" stroke="#263238" stroke-width="2" stroke-miterlimit="10" stroke-linecap="round" stroke-linejoin="round"/>
<path d="M184.686 34.7021C189.637 33.8955 192.997 29.2281 192.19 24.2772C191.383 19.3263 186.716 15.9667 181.765 16.7733C176.814 17.5799 173.455 22.2473 174.261 27.1982C175.068 32.1491 179.735 35.5087 184.686 34.7021Z" fill="#263238"/>
<path d="M182.675 30.94C182.46 30.7044 182.356 30.365 182.356 29.9285L182.35 21.8436L180.756 22.8205C180.638 22.9036 180.493 22.9452 180.34 22.9452C180.119 22.9452 179.939 22.862 179.786 22.6888C179.634 22.5226 179.558 22.3217 179.558 22.1C179.558 21.8021 179.696 21.5665 179.987 21.3933L182.89 19.6752C183.112 19.5367 183.333 19.4674 183.555 19.4604C183.881 19.4604 184.144 19.5782 184.345 19.8138C184.553 20.0493 184.65 20.3819 184.65 20.8114L184.657 29.9701C184.657 30.3719 184.546 30.6906 184.331 30.933C184.109 31.1755 183.839 31.2933 183.5 31.2933C183.167 31.3002 182.89 31.1825 182.675 30.94Z" fill="#B7B1E1"/>
<path d="M98.376 145.964C98.376 145.964 125.741 187.185 132.323 187.877C138.904 188.57 159.688 167.094 159.688 167.094L153.799 165.708L134.186 178.968C134.186 178.968 117.407 158.392 102.692 142.652L98.376 145.964Z" fill="white" stroke="#263238" stroke-width="2" stroke-miterlimit="10" stroke-linecap="round" stroke-linejoin="round"/>
<path d="M103.24 133.681C103.24 133.681 108.734 133.916 108.492 136.306C108.256 138.696 108.492 145.139 107.058 146.338C105.623 147.53 103.476 148.008 102.998 145.624C102.527 143.234 103.24 133.681 103.24 133.681Z" fill="white" stroke="#263238" stroke-width="2" stroke-miterlimit="10" stroke-linecap="round" stroke-linejoin="round"/>
<path d="M101.812 144.904C101.812 144.904 101.577 152.067 101.099 152.781C100.621 153.494 97.2815 156.127 95.1269 155.649C92.9793 155.171 93.6928 153.023 93.6928 151.832C93.6928 150.64 93.6928 132.967 93.6928 132.967H101.812V144.904Z" fill="#263238" stroke="#263238" stroke-miterlimit="10" stroke-linecap="round" stroke-linejoin="round"/>
<path d="M90.5896 147.529C90.5896 147.529 88.9199 150.633 90.354 153.023C91.7881 155.413 95.8478 155.413 97.5175 154.215C99.1871 153.023 97.9955 151.347 96.5614 150.869C95.1273 150.391 93.2152 149.199 93.2152 147.765C93.2152 146.338 91.3031 146.573 90.5896 147.529Z" fill="white" stroke="#263238" stroke-width="2" stroke-miterlimit="10" stroke-linecap="round" stroke-linejoin="round"/>
<path d="M89.2939 142.985C89.3078 144.613 89.5711 147.363 90.8596 148.499C92.3145 149.781 99.0138 149.871 101.923 147.924C104.833 145.978 102.9 142.59 100.676 142.805C98.8337 142.985 96.8592 142.528 94.9956 142.299C93.9426 142.167 90.2223 141.343 89.4948 142.119C89.3147 142.313 89.2939 142.638 89.2939 142.943C89.2939 142.95 89.2939 142.971 89.2939 142.985Z" fill="white" stroke="#263238" stroke-width="2" stroke-miterlimit="10" stroke-linecap="round" stroke-linejoin="round"/>
<path d="M88.4694 137.068C88.2408 138.717 88.1299 141.502 89.4878 142.708C91.0189 144.072 98.9513 144.481 102.699 142.652C106.447 140.823 104.674 137.311 102 137.422C99.7896 137.519 97.5103 136.964 95.335 136.639C94.1087 136.452 89.8203 135.447 88.8366 136.195C88.5941 136.382 88.5179 136.715 88.4763 137.013C88.4763 137.034 88.4694 137.048 88.4694 137.068Z" fill="white" stroke="#263238" stroke-width="2" stroke-miterlimit="10" stroke-linecap="round" stroke-linejoin="round"/>
<path d="M88.9339 128.907C88.3451 130.466 87.6246 133.161 88.6776 134.637C89.8692 136.306 97.5107 138.454 101.57 137.505C105.63 136.549 104.674 132.731 102.048 132.253C99.8662 131.859 97.7739 130.812 95.7233 130.016C94.5663 129.565 90.6105 127.639 89.4882 128.145C89.2111 128.27 89.0656 128.582 88.9547 128.866C88.9478 128.88 88.9409 128.893 88.9339 128.907Z" fill="white" stroke="#263238" stroke-width="2" stroke-miterlimit="10" stroke-linecap="round" stroke-linejoin="round"/>
<path d="M152.462 248.635L174.285 167.052H181.67L158.503 249.307" fill="#263238"/>
<path d="M152.462 248.635L174.285 167.052H181.67L158.503 249.307" stroke="#263238" stroke-miterlimit="10" stroke-linecap="round" stroke-linejoin="round"/>
<path d="M166.913 240.834L188.043 166.72L181.67 167.052L158.503 249.307" fill="white"/>
<path d="M166.913 240.834L188.043 166.72L181.67 167.052L158.503 249.307" stroke="#263238" stroke-width="2" stroke-miterlimit="10" stroke-linecap="round" stroke-linejoin="round"/>
<path d="M164.884 247.963L165.861 244.541" stroke="#263238" stroke-width="2" stroke-miterlimit="10" stroke-linecap="round" stroke-linejoin="round"/>
<path d="M137.865 186.215C137.865 186.215 140.255 189.796 143.117 190.275C145.985 190.753 176.308 166.872 176.308 166.872L163.893 168.306L137.865 186.215Z" fill="white" stroke="#263238" stroke-width="2" stroke-miterlimit="10" stroke-linecap="round" stroke-linejoin="round"/>
<path d="M118.612 147.917C118.612 147.917 124.321 100.579 137.075 84.1254C151.028 66.1406 179.044 80.7653 173.336 109.641C168.957 131.796 156.21 171.417 156.21 171.417L118.612 147.917Z" fill="#B7B1E1" stroke="#263238" stroke-width="2" stroke-miterlimit="10" stroke-linecap="round" stroke-linejoin="round"/>
<path d="M159.572 78.0842L234.171 101.66C236.61 102.429 238.862 103.724 240.704 105.498C245.408 110.029 252.42 119.776 246.531 134.152C239.16 152.13 227.396 165.376 227.396 165.376L156.219 171.417L170.656 115.682C170.656 115.682 177.37 91.1779 159.572 78.0842Z" fill="white"/>
<path d="M194.556 143.657C176.613 152.067 167.017 150.605 162.237 148.16L156.21 171.417L227.387 165.376C227.387 165.376 239.158 152.13 246.522 134.152C247.353 132.122 247.921 130.189 248.282 128.346C230.99 124.273 217.279 133.009 194.556 143.657Z" fill="#B7B1E1"/>
<path opacity="0.5" d="M194.556 143.657C176.613 152.067 167.017 150.605 162.237 148.16L156.21 171.417L227.387 165.376C227.387 165.376 239.158 152.13 246.522 134.152C247.353 132.122 247.921 130.189 248.282 128.346C230.99 124.273 217.279 133.009 194.556 143.657Z" fill="white"/>
<path d="M159.572 78.0842L234.171 101.66C236.61 102.429 238.862 103.724 240.704 105.498C245.408 110.029 252.419 119.776 246.531 134.152C239.16 152.13 227.396 165.376 227.396 165.376L156.219 171.417L170.656 115.682C170.656 115.682 177.37 91.1779 159.572 78.0842Z" stroke="#263238" stroke-width="2" stroke-miterlimit="10" stroke-linecap="round" stroke-linejoin="round"/>
<path d="M201.505 85.1091L189.824 121.564C187.836 121.896 185.903 123.531 184.933 125.949C183.603 129.288 184.635 132.842 187.24 133.882C189.845 134.921 193.039 133.05 194.369 129.711C195.464 126.961 194.958 124.072 193.288 122.554L201.505 94.4895L212.963 98.3968L216.088 90.3189L201.505 85.1091Z" fill="#263238" stroke="#263238" stroke-miterlimit="10" stroke-linecap="round" stroke-linejoin="round"/>
<path d="M130.127 117.407C130.127 117.407 135.337 123.136 135.6 126.005C135.863 128.873 131.173 136.424 131.173 136.424C131.173 136.424 140.81 142.417 149.927 138.246C159.044 134.076 163.471 116.368 163.471 116.368C163.471 116.368 152.532 121.578 148.361 121.578C144.191 121.578 130.127 117.407 130.127 117.407Z" fill="#263238" stroke="#263238" stroke-miterlimit="10" stroke-linecap="round" stroke-linejoin="round"/>
<path d="M149.926 138.246C152.441 137.096 154.595 134.914 156.404 132.357C156.057 131.228 155.344 130.404 154.097 130.168C148.624 129.129 142.894 135.115 142.894 135.115C142.894 135.115 142.291 136.521 141.966 139.687C144.488 139.819 147.231 139.479 149.926 138.246Z" fill="#B7B1E1" stroke="#263238" stroke-miterlimit="10" stroke-linecap="round" stroke-linejoin="round"/>
<path d="M142.368 133.563C138.094 133.362 135.094 131.886 133.993 131.249C132.725 133.923 131.166 136.424 131.166 136.424C131.166 136.424 140.803 142.417 149.92 138.246C152.275 137.172 154.312 135.191 156.044 132.849C153.91 133.085 146.955 133.778 142.368 133.563Z" fill="white" stroke="#263238" stroke-miterlimit="10" stroke-linecap="round" stroke-linejoin="round"/>
<path d="M148.361 121.578C144.191 121.578 130.127 117.407 130.127 117.407C130.127 117.407 133.106 120.684 134.672 123.524C138.122 124.91 144.225 127.044 149.144 127.044C153.599 127.044 158.143 125.492 161.074 123.51C162.681 119.534 163.471 116.368 163.471 116.368C163.471 116.368 152.532 121.578 148.361 121.578Z" fill="white" stroke="#263238" stroke-miterlimit="10" stroke-linecap="round" stroke-linejoin="round"/>
<path d="M147.321 109.592C147.321 109.592 148.887 104.119 153.314 103.6C157.741 103.08 159.043 106.205 159.043 106.205C159.043 106.205 150.702 106.205 147.321 109.592Z" fill="#263238"/>
<path d="M160.083 114.802L166.595 117.151" stroke="#263238" stroke-miterlimit="10" stroke-linecap="round" stroke-linejoin="round"/>
<path d="M140.005 104.355C139.68 106.198 138.834 107.59 138.128 107.459C137.421 107.334 137.109 105.74 137.442 103.898C137.768 102.055 138.613 100.662 139.319 100.794C140.026 100.919 140.331 102.512 140.005 104.355Z" fill="#263238"/>
<path d="M148.361 103.08C148.361 103.08 148.097 99.9557 154.873 99.9557C161.648 99.9557 162.951 99.1728 160.346 95.7851C157.741 92.4042 146.795 94.2263 148.361 103.08Z" fill="#263238"/>
<path d="M145.756 93.7066C145.756 93.7066 145.236 89.2797 141.066 89.2797C136.895 89.2797 134.554 94.2262 134.29 92.6675C134.027 91.1018 135.593 85.6357 141.322 85.1161C147.058 84.5896 145.756 93.7066 145.756 93.7066Z" fill="#263238"/>
<path d="M175.144 90.0903C176.079 92.335 176.834 95.21 177.153 98.861C178.816 117.871 161.946 169.664 161.946 169.664" stroke="#263238" stroke-miterlimit="10" stroke-linecap="round" stroke-linejoin="round"/>
<path d="M168.604 82.4696C168.604 82.4696 170.439 83.1347 172.428 85.511" stroke="#263238" stroke-miterlimit="10" stroke-linecap="round" stroke-linejoin="round"/>
<path d="M227.45 160.54C225.808 163.02 224.679 164.683 224.679 164.683" stroke="#263238" stroke-miterlimit="10" stroke-linecap="round" stroke-linejoin="round"/>
<path d="M230.144 101.244C230.144 101.244 242.739 108.373 244.402 118.827C246.065 129.281 242.026 134.747 239.649 140.449C238.291 143.712 233.574 151.194 229.798 156.986" stroke="#263238" stroke-miterlimit="10" stroke-linecap="round" stroke-linejoin="round"/>
<path d="M131.81 141.738C131.81 141.738 135.571 145.5 144.044 144.557C144.044 144.557 135.571 148.319 131.81 141.738Z" fill="#263238"/>
<path d="M55.7207 138.696C55.7207 138.696 77.7722 127.134 118.023 134.221C121.875 134.9 125.554 132.33 126.24 128.478L126.822 125.229C127.397 122.021 125.713 118.834 122.741 117.497C112.051 112.696 87.1872 99.3806 74.1073 74.7035L55.7207 138.696Z" fill="#B7B1E1" stroke="#263238" stroke-width="2" stroke-miterlimit="10" stroke-linecap="round" stroke-linejoin="round"/>
<path d="M75.4238 88.1021C75.4238 88.1021 86.1967 104.992 104.064 111.11" stroke="white" stroke-width="2" stroke-miterlimit="10" stroke-linecap="round" stroke-linejoin="round"/>
<path d="M122.742 117.497C118.474 115.578 111.934 112.301 104.792 107.479C106.669 113.479 107.21 122.548 99.4365 132.101C105.117 132.385 111.311 133.036 118.017 134.221C121.869 134.9 125.548 132.33 126.234 128.478L126.816 125.229C127.404 122.014 125.721 118.834 122.742 117.497Z" fill="#263238" stroke="#263238" stroke-miterlimit="10" stroke-linecap="round" stroke-linejoin="round"/>
<path d="M73.3921 109.414C79.6737 89.3296 78.4901 71.0852 70.7485 68.6639C63.0069 66.2426 51.6389 80.5614 45.3573 100.646C39.0757 120.73 40.2592 138.974 48.0008 141.396C55.7424 143.817 67.1105 129.498 73.3921 109.414Z" fill="#263238" stroke="#263238" stroke-miterlimit="10" stroke-linecap="round" stroke-linejoin="round"/>
<path d="M70.2665 108.432C75.9177 90.3632 75.2384 74.0705 68.7494 72.041C62.2603 70.0114 52.4187 83.0137 46.7675 101.082C41.1163 119.151 41.7956 135.444 48.2847 137.473C54.7737 139.503 64.6153 126.5 70.2665 108.432Z" fill="white" stroke="#263238" stroke-miterlimit="10" stroke-linecap="round" stroke-linejoin="round"/>
<path d="M72.8682 98.0713L66.4322 97.7318L61.6104 114.234L66.7301 117.927C68.0256 114.982 69.2241 111.789 70.2702 108.428C71.3856 104.874 72.2447 101.397 72.8682 98.0713Z" fill="#263238" stroke="#263238" stroke-miterlimit="10" stroke-linecap="round" stroke-linejoin="round"/>
<path d="M66.7986 106.793C65.4684 111.352 63.1407 114.684 61.6096 114.234C60.0785 113.784 59.9123 109.731 61.2424 105.172C62.5726 100.614 64.9004 97.2815 66.4314 97.7318C67.9625 98.1821 68.1288 102.242 66.7986 106.793Z" fill="white" stroke="#263238" stroke-miterlimit="10" stroke-linecap="round" stroke-linejoin="round"/>
<path d="M140.491 189.318C136.909 187.649 107.542 135.35 105.865 132.489C104.195 129.621 104.673 125.561 106.343 121.744C108.013 117.927 108.013 110.763 107.057 109.329C106.101 107.895 103.156 106.433 103.156 106.433C103.156 106.433 103.71 105.747 104.909 104.313C106.101 102.879 108.969 103.835 108.969 103.835C111.116 102.166 113.035 104.895 113.035 104.895C115.426 103.461 116.61 106.225 116.61 106.225C116.61 106.225 117.996 106.295 119 106.939C120.996 108.227 120.67 113.867 120.67 113.867C120.67 113.867 122.818 114.345 123.296 115.779C123.774 117.213 123.774 120.317 122.818 122.707C121.862 125.097 115.89 132.26 115.89 132.26L145.5 183.125" fill="white"/>
<path d="M140.491 189.318C136.909 187.649 107.542 135.35 105.865 132.489C104.195 129.621 104.673 125.561 106.343 121.744C108.013 117.927 108.013 110.763 107.057 109.329C106.101 107.895 103.156 106.433 103.156 106.433C103.156 106.433 103.71 105.747 104.909 104.313C106.101 102.879 108.969 103.835 108.969 103.835C111.116 102.166 113.035 104.895 113.035 104.895C115.426 103.461 116.61 106.225 116.61 106.225C116.61 106.225 117.996 106.295 119 106.939C120.996 108.227 120.67 113.867 120.67 113.867C120.67 113.867 122.818 114.345 123.296 115.779C123.774 117.213 123.774 120.317 122.818 122.707C121.862 125.097 115.89 132.26 115.89 132.26L145.5 183.125" stroke="#263238" stroke-width="2" stroke-miterlimit="10" stroke-linecap="round" stroke-linejoin="round"/>
<path d="M108.976 103.835C108.976 103.835 112.405 106.045 112.405 107.971C112.405 109.897 112.793 112.46 112.793 112.46" stroke="#263238" stroke-miterlimit="10" stroke-linecap="round" stroke-linejoin="round"/>
<path d="M113.042 104.888C113.042 104.888 115.093 107.07 115.224 108.352C115.356 109.634 115.612 113.61 115.612 113.61" stroke="#263238" stroke-miterlimit="10" stroke-linecap="round" stroke-linejoin="round"/>
<path d="M116.617 106.218C116.617 106.218 117.795 107.84 117.795 109.765C117.795 111.691 118.051 113.742 118.051 113.742" stroke="#263238" stroke-miterlimit="10" stroke-linecap="round" stroke-linejoin="round"/>
<path d="M120.677 113.86C120.677 113.86 121.64 120.026 121.259 121.307" stroke="#263238" stroke-miterlimit="10" stroke-linecap="round" stroke-linejoin="round"/>
</g>
<defs>
<clipPath id="clip0">
<rect width="286.766" height="250" fill="white"/>
</clipPath>
</defs>
</svg>
