<svg width="306" height="300" viewBox="0 0 306 300" fill="none" xmlns="http://www.w3.org/2000/svg">
<g opacity="0.6" clip-path="url(#clip0)">
<path d="M12.4428 103.481C39.0877 76.8506 61.6479 99.1926 71.1489 63.4304C92.6258 -17.3545 181.67 -16.5646 193.376 40.9003C214.476 144.441 306.357 78.6861 305.672 152.851C304.943 232.026 246.718 293.696 142.29 299.857C48.6714 305.379 -31.6997 147.608 12.4428 103.481Z" fill="#B7B1E1"/>
<path opacity="0.7" d="M12.4428 103.481C39.0877 76.8506 61.6479 99.1926 71.1489 63.4304C92.6258 -17.3545 181.67 -16.5646 193.376 40.9003C214.476 144.441 306.357 78.6861 305.672 152.851C304.943 232.026 246.718 293.696 142.29 299.857C48.6714 305.379 -31.6997 147.608 12.4428 103.481Z" fill="white"/>
<path d="M97.3496 42.196C100.156 44.4603 102.382 47.4618 103.699 50.9598" stroke="#263238" stroke-miterlimit="10" stroke-linecap="round" stroke-linejoin="round"/>
<path d="M64.3789 53.0737C66.41 45.2879 72.917 39.0742 81.3799 37.833C86.4727 37.0883 91.4 38.2693 95.4321 40.8195" stroke="#263238" stroke-miterlimit="10" stroke-linecap="round" stroke-linejoin="round"/>
<path d="M70.8105 73.836C67.2222 70.7142 64.6871 66.336 63.9424 61.2583" stroke="#263238" stroke-miterlimit="10" stroke-linecap="round" stroke-linejoin="round"/>
<path d="M83.5693 78.9062C79.7178 78.7558 76.0693 77.5371 72.9775 75.491" stroke="#263238" stroke-miterlimit="10" stroke-linecap="round" stroke-linejoin="round"/>
<path d="M104.813 55.2703C106.468 66.5541 98.6595 77.0481 87.3682 78.7031" stroke="#263238" stroke-miterlimit="10" stroke-linecap="round" stroke-linejoin="round"/>
<path d="M88.3906 55.1656L94.6698 52.0267C94.88 51.9216 95.1136 51.872 95.3484 51.8826C95.5831 51.8932 95.8113 51.9636 96.0112 52.0871C96.2111 52.2106 96.3761 52.3832 96.4906 52.5884C96.6052 52.7936 96.6653 53.0246 96.6654 53.2596V62.5881C96.6653 62.8231 96.6052 63.0542 96.4906 63.2594C96.3761 63.4646 96.2111 63.6371 96.0112 63.7607C95.8113 63.8842 95.5831 63.9545 95.3484 63.9651C95.1136 63.9757 94.88 63.9261 94.6698 63.8211L88.3906 60.6821V55.1656Z" stroke="#2C3E50" stroke-width="0.916667" stroke-linecap="round" stroke-linejoin="round"/>
<path d="M85.6322 49.6489H74.5991C73.0757 49.6489 71.8408 50.8838 71.8408 52.4072V63.4403C71.8408 64.9637 73.0757 66.1986 74.5991 66.1986H85.6322C87.1555 66.1986 88.3905 64.9637 88.3905 63.4403V52.4072C88.3905 50.8838 87.1555 49.6489 85.6322 49.6489Z" stroke="#2C3E50" stroke-width="0.916667" stroke-linecap="round" stroke-linejoin="round"/>
<path d="M65.8799 113.836C68.7385 117.454 70.6567 121.818 71.3112 126.549" stroke="#263238" stroke-miterlimit="10" stroke-linecap="round" stroke-linejoin="round"/>
<path d="M21.7451 118.071C26.4693 108.946 36.3314 103.049 47.2241 103.891C53.7762 104.403 59.5836 107.261 63.879 111.579" stroke="#263238" stroke-miterlimit="10" stroke-linecap="round" stroke-linejoin="round"/>
<path d="M23.8887 145.747C20.3004 140.842 18.3822 134.681 18.8862 128.144" stroke="#263238" stroke-miterlimit="10" stroke-linecap="round" stroke-linejoin="round"/>
<path d="M38.3394 155.662C33.5776 154.39 29.3876 151.833 26.1152 148.417" stroke="#263238" stroke-miterlimit="10" stroke-linecap="round" stroke-linejoin="round"/>
<path d="M71.4762 132.229C70.3478 146.755 57.6648 157.61 43.1387 156.482" stroke="#263238" stroke-miterlimit="10" stroke-linecap="round" stroke-linejoin="round"/>
<path d="M40.998 128.761C44.0447 128.761 46.5145 126.292 46.5145 123.245C46.5145 120.198 44.0447 117.728 40.998 117.728C37.9513 117.728 35.4814 120.198 35.4814 123.245C35.4814 126.292 37.9513 128.761 40.998 128.761Z" stroke="#2C3E50" stroke-width="0.916667" stroke-linecap="round" stroke-linejoin="round"/>
<path d="M32.7236 142.553V139.794C32.7236 138.331 33.3048 136.928 34.3394 135.894C35.3739 134.859 36.7771 134.278 38.2402 134.278H43.7567C45.2198 134.278 46.623 134.859 47.6575 135.894C48.6921 136.928 49.2733 138.331 49.2733 139.794V142.553" stroke="#2C3E50" stroke-width="0.916667" stroke-linecap="round" stroke-linejoin="round"/>
<path d="M50.6523 117.908C51.839 118.211 52.8907 118.902 53.6418 119.869C54.3929 120.837 54.8006 122.027 54.8006 123.252C54.8006 124.477 54.3929 125.667 53.6418 126.634C52.8907 127.602 51.839 128.292 50.6523 128.596" stroke="#2C3E50" stroke-width="0.916667" stroke-linecap="round" stroke-linejoin="round"/>
<path d="M57.5476 142.553V139.794C57.5406 138.577 57.131 137.396 56.3826 136.435C55.6342 135.475 54.5891 134.789 53.4102 134.485" stroke="#2C3E50" stroke-width="0.916667" stroke-linecap="round" stroke-linejoin="round"/>
<path d="M175.486 61.6625L173.274 60.5341C173.673 59.5562 173.666 58.33 173.598 57.5176C174.32 57.8486 175.05 58.1946 175.734 58.5181C175.697 59.4283 175.621 60.504 175.486 61.6625Z" stroke="#263238" stroke-miterlimit="10" stroke-linecap="round" stroke-linejoin="round"/>
<path d="M178.705 59.9774C179.419 60.346 180.172 60.5867 180.932 60.7221C181.458 63.6258 181.684 68.4553 179.119 73.4653C178.547 74.5787 172.551 71.5095 173.116 70.3961C174.485 67.7181 175.154 64.4458 175.478 61.6699C175.613 60.5115 175.688 59.4357 175.726 58.5255C176.982 59.1123 178.088 59.6614 178.705 59.9774Z" stroke="#263238" stroke-miterlimit="10" stroke-linecap="round" stroke-linejoin="round"/>
<path d="M185.852 46.008C187.778 46.9935 189.125 48.671 189.734 50.5817C190.358 52.4849 190.245 54.6364 189.26 56.5622C188.275 58.4955 186.597 59.8345 184.686 60.4589C183.49 60.85 182.204 60.9478 180.933 60.7297C180.173 60.5943 179.428 60.3535 178.706 59.9849C178.089 59.669 176.983 59.1274 175.734 58.5256C175.05 58.1946 174.32 57.8561 173.598 57.5251C171.868 56.7277 170.19 55.9905 169.325 55.7121L176.9 40.9077C178.503 42.0662 184.077 45.0978 185.852 46.008Z" stroke="#263238" stroke-miterlimit="10" stroke-linecap="round" stroke-linejoin="round"/>
<path d="M169.55 33.9117C171.687 36.5672 174.154 38.9218 176.9 40.9002L169.325 55.7046C166.113 54.6364 162.765 54.012 159.357 53.839L156.416 53.6886L167.707 31.6249L169.55 33.9117Z" stroke="#263238" stroke-miterlimit="10" stroke-linecap="round" stroke-linejoin="round"/>
<path d="M153.008 54.3054L166.225 28.4729C166.436 28.0667 166.932 27.9012 167.339 28.1118L168.317 28.6083C168.723 28.819 168.888 29.3154 168.678 29.7217L167.715 31.6023L156.423 53.666L155.46 55.5466C155.25 55.9528 154.753 56.1183 154.347 55.9077L153.369 55.4112C152.955 55.2156 152.797 54.7116 153.008 54.3054Z" stroke="#263238" stroke-miterlimit="10" stroke-linecap="round" stroke-linejoin="round"/>
<path d="M153.399 38.2146L148.307 35.6118" stroke="#263238" stroke-miterlimit="10" stroke-linecap="round" stroke-linejoin="round"/>
<path d="M159.365 30.0451L156.153 24.4258" stroke="#263238" stroke-miterlimit="10" stroke-linecap="round" stroke-linejoin="round"/>
<path d="M150.263 47.8285L143.831 48.513" stroke="#263238" stroke-miterlimit="10" stroke-linecap="round" stroke-linejoin="round"/>
<path d="M192.833 23.5156C188.463 19.476 183.031 16.5647 177.006 15.2483" stroke="#263238" stroke-miterlimit="10" stroke-linecap="round" stroke-linejoin="round"/>
<path d="M182.972 79.9349C195.203 74.7594 203.779 62.6555 203.779 48.5357C203.779 40.0502 200.672 32.2869 195.542 26.3215" stroke="#263238" stroke-miterlimit="10" stroke-linecap="round" stroke-linejoin="round"/>
<path d="M147.532 74.4133C153.49 79.5287 161.238 82.6129 169.709 82.6129" stroke="#263238" stroke-miterlimit="10" stroke-linecap="round" stroke-linejoin="round"/>
<path d="M136.211 54.802C137.369 61.0608 140.243 66.7177 144.32 71.2689" stroke="#263238" stroke-miterlimit="10" stroke-linecap="round" stroke-linejoin="round"/>
<path d="M169.709 14.4659C150.888 14.4659 135.632 29.7217 135.632 48.5432" stroke="#263238" stroke-miterlimit="10" stroke-linecap="round" stroke-linejoin="round"/>
<path d="M109.363 103.405C106.504 100.848 103.54 101.968 102.021 102.871C101.712 101.133 100.637 98.1544 96.8303 97.6429C92.7004 97.0937 89.3303 101.118 90.4361 106.723C91.2335 110.755 93.8138 114.448 95.1904 116.194C95.3559 116.404 95.5063 116.585 95.6342 116.735C95.8298 116.735 96.0705 116.735 96.3338 116.72C98.5605 116.63 103.036 116.186 106.617 114.17C111.605 111.364 112.462 106.181 109.363 103.405Z" stroke="#263238" stroke-miterlimit="10" stroke-linecap="round" stroke-linejoin="round"/>
<path d="M93.3021 119.345C93.3021 119.345 93.0989 119.722 92.8281 120.369" stroke="#263238" stroke-linecap="round" stroke-linejoin="round"/>
<path d="M92.0838 122.452C90.9855 126.161 90.331 132.329 96.2362 136.091C111.071 145.547 116.066 123.242 104.707 125.243C96.9208 126.62 105.105 147.156 117.284 143.177" stroke="#263238" stroke-linecap="round" stroke-linejoin="round" stroke-dasharray="2.95 2.95"/>
<path d="M118.315 142.778C118.654 142.635 118.992 142.47 119.331 142.282" stroke="#263238" stroke-linecap="round" stroke-linejoin="round"/>
<path d="M100.087 279.08C100.087 279.08 91.7149 284.774 88.3448 284.398C87.9235 284.353 87.6 284.225 87.3518 283.977C85.1477 281.705 83.3874 277.726 83.3874 277.726C83.3874 277.726 84.433 276.274 87.6677 280.125L89.7214 278.237L85.4787 273.972C85.4787 273.972 87.8633 272.076 91.918 274.491C91.7826 274.198 89.1647 268.511 91.1356 260.762L81.251 251.239L89.9997 243.618L90.6768 243.032C90.6768 243.032 91.2259 243.573 92.1211 244.416C92.9862 245.236 94.1672 246.327 95.4611 247.455C98.5454 250.163 102.277 253.104 103.894 253.074C106.888 253.022 100.087 279.08 100.087 279.08Z" fill="white"/>
<path opacity="0.4" d="M93.6181 275.349C93.6181 275.349 88.8488 280.268 88.3448 284.398C87.9235 284.353 87.6 284.225 87.3518 283.977C85.1477 281.705 83.3874 277.726 83.3874 277.726C83.3874 277.726 84.433 276.274 87.6677 280.125L89.7214 278.237L85.4787 273.972C85.4787 273.972 87.8633 272.076 91.918 274.491C91.7826 274.198 89.1647 268.511 91.1356 260.762L81.251 251.239L89.9997 243.618L92.1136 244.416C92.9787 245.236 94.1597 246.327 95.4536 247.455C93.603 250.171 89.6386 255.782 89.6386 255.782L93.0614 260.431C93.0689 260.439 90.9927 272.152 93.6181 275.349Z" fill="#B7B1E1"/>
<path d="M100.087 279.08C100.087 279.08 91.7149 284.774 88.3448 284.398C87.9235 284.353 87.6 284.225 87.3518 283.977C85.1477 281.705 83.3874 277.726 83.3874 277.726C83.3874 277.726 84.433 276.274 87.6677 280.125L89.7214 278.237L85.4787 273.972C85.4787 273.972 87.8633 272.076 91.918 274.491C91.7826 274.198 89.1647 268.511 91.1356 260.762L81.251 251.239L89.9997 243.618L90.6767 243.032C90.6767 243.032 91.2259 243.573 92.1211 244.416C92.9862 245.236 94.1672 246.327 95.4611 247.455C98.5454 250.163 102.277 253.104 103.894 253.074C106.888 253.022 100.087 279.08 100.087 279.08Z" stroke="#263238" stroke-miterlimit="10" stroke-linecap="round" stroke-linejoin="round"/>
<path d="M89.7217 278.245C89.7217 278.245 90.4514 275.958 91.9258 274.506" stroke="#263238" stroke-miterlimit="10" stroke-linecap="round" stroke-linejoin="round"/>
<path d="M245.965 212.746C244.776 214.551 243.159 216.251 241.226 217.854C241.226 217.854 241.218 217.854 241.218 217.861C225.819 230.612 190.32 236.908 190.32 236.908C190.32 236.908 189.132 238.691 187.304 241.226C184.024 245.785 178.645 252.781 174.26 256.286H174.252C172.402 257.776 170.724 258.633 169.46 258.4L176.118 282.999L179.097 293.681C179.097 293.681 148.487 307.034 96.1228 291.763C96.1228 291.763 95.5285 284.932 95.9723 283.473C95.9949 283.405 96.0175 283.33 96.04 283.262C96.529 282.089 98.0937 280.682 98.0937 280.682C98.0937 280.682 97.8003 276.289 97.6498 271.813C97.5295 268.338 97.4994 264.817 97.7552 263.252C98.1238 260.995 99.7787 255.542 100.606 252.864C100.9 251.916 101.095 251.314 101.095 251.314L98.4924 226.911L97.7401 219.885C97.7401 219.885 97.7251 219.757 97.7025 219.516C97.7025 219.463 97.695 219.411 97.6875 219.343L97.2737 215.574L83.8083 219.689C83.8083 219.689 84.523 221.261 85.4859 223.48C87.2537 227.528 89.8565 233.696 90.4357 236.133C90.4808 236.337 90.541 236.525 90.6087 236.72C91.8575 240.278 96.6042 243.506 96.6042 243.506L83.8535 258.408L80.0846 255.775C80.0846 255.775 79.5355 256.204 78.5651 256.73C76.0826 258.077 70.8846 260.055 65.205 257.031C63.1288 255.925 60.9924 254.157 58.9011 251.457C48.8509 238.443 44.533 227.844 45.9472 215.371C47.3615 202.891 103.382 164.519 114.493 164.917L131.027 168.573C131.381 168.28 132.351 167.513 133.096 167.55C136.105 167.701 136.18 171.199 136.18 171.199L173.229 177.217C173.229 177.217 177.066 175.298 177.735 175.329C179.375 175.411 180.075 176.818 180.075 176.818C180.075 176.818 189.673 171.071 192.765 172.41C202.928 176.788 253.465 201.349 245.965 212.746Z" fill="#B7B1E1"/>
<path opacity="0.2" d="M117.246 273.641C117.246 273.641 111.492 280.705 101.208 282.337C99.26 282.645 97.5448 282.961 96.0479 283.27C96.5368 282.096 98.1015 280.69 98.1015 280.69C98.1015 280.69 97.8081 276.296 97.6577 271.82C102.013 274.664 109.581 277.974 117.246 273.641Z" fill="black"/>
<path opacity="0.2" d="M100.622 252.879C100.915 251.931 101.111 251.329 101.111 251.329L98.5078 226.926C102.405 232.508 116.291 251.54 125.867 253.593C135.865 255.73 109.107 259.521 100.622 252.879Z" fill="black"/>
<path opacity="0.2" d="M176.118 283.014C165.662 281.825 150.873 279.193 149.391 273.716C147.089 265.17 158.297 260.04 174.245 256.294C172.395 257.783 170.717 258.641 169.453 258.408L176.118 283.014Z" fill="black"/>
<path opacity="0.2" d="M241.219 217.861C225.82 230.612 190.321 236.908 190.321 236.908C190.321 236.908 189.132 238.691 187.304 241.226C184.303 234.215 179.977 219.712 185.04 201.883C185.04 201.883 187.778 216.695 199.13 220.216C199.13 220.216 190.441 213.746 193.473 198.159C193.473 198.159 196.437 216.499 215.732 221.562C225.113 224.03 234.275 221.306 241.219 217.861Z" fill="black"/>
<path opacity="0.2" d="M97.7106 219.531L97.2819 215.589L83.8165 219.704C83.8165 219.704 84.5311 221.276 85.494 223.495C80.341 222.961 70.5767 227.746 68.8691 222.54C66.8155 216.251 79.4609 218.418 79.4609 218.418L91.3917 211.474C89.1349 201.823 94.8822 194.571 94.8822 194.571L95.9729 201.304C96.4995 188.508 101.502 181.505 101.502 181.505C97.3345 191.622 97.4549 216.53 97.7106 219.531Z" fill="black"/>
<path opacity="0.2" d="M96.6121 243.513L83.8613 258.415L80.0925 255.782C80.0925 255.782 79.5434 256.211 78.573 256.738C76.0905 258.084 70.8924 260.063 65.2129 257.039C69.3428 251.321 77.8809 242.904 88.0364 239.654C88.0364 239.654 83.8538 245.77 81.2585 251.231L83.8764 253.811C83.8764 253.826 90.4135 246.372 96.6121 243.513Z" fill="black"/>
<path opacity="0.2" d="M127.582 177.871C127.574 179.18 126.754 194.097 137.602 198.039C148.45 201.981 158.094 195.293 158.094 195.293C158.094 195.293 141.454 211.339 131.336 202.763C121.21 194.188 127.582 177.871 127.582 177.871Z" fill="black"/>
<path d="M96.1303 291.77C96.1303 291.77 95.5435 284.94 95.9798 283.481C96.3484 282.262 98.1012 280.69 98.1012 280.69C98.1012 280.69 97.1835 266.841 97.7702 263.267C98.2742 260.206 101.11 251.322 101.11 251.322L97.2888 215.589L83.8234 219.704C83.8234 219.704 89.5556 232.372 90.4432 236.149C91.3309 239.925 96.6117 243.528 96.6117 243.528L83.8535 258.43L80.0846 255.805C80.0846 255.805 68.9588 264.509 58.9011 251.487C48.8509 238.465 44.533 227.874 45.9472 215.394C47.3615 202.914 103.382 164.541 114.5 164.94L131.035 168.596C131.396 168.302 132.359 167.535 133.104 167.573C136.113 167.723 136.188 171.221 136.188 171.221L173.237 177.232C173.237 177.232 177.081 175.313 177.75 175.344C179.39 175.426 180.09 176.826 180.09 176.826C180.09 176.826 189.688 171.078 192.78 172.417C202.928 176.795 253.465 201.357 245.965 212.753C235.32 228.927 190.32 236.908 190.32 236.908C190.32 236.908 175.35 259.484 169.46 258.408L179.104 293.696" stroke="#263238" stroke-miterlimit="10" stroke-linecap="round" stroke-linejoin="round"/>
<path d="M206.81 215.213C223.811 226.444 237.517 224.368 248.244 209.917C248.244 209.917 257.174 198.408 256.542 185.98C255.91 173.553 252.946 133.044 214.235 143.403C207.863 145.11 192.999 165.023 191.742 170.492C191.171 172.989 185.198 185.725 179.405 198.897" fill="#B7B1E1"/>
<path d="M206.81 215.213C223.811 226.444 237.517 224.368 248.244 209.917C248.244 209.917 257.174 198.408 256.542 185.98C255.91 173.553 252.946 133.044 214.235 143.403C207.863 145.11 192.999 165.023 191.742 170.492C191.171 172.989 185.198 185.725 179.405 198.897" stroke="#263238" stroke-miterlimit="10" stroke-linecap="round" stroke-linejoin="round"/>
<path d="M160.809 96.2287C160.809 96.2287 171.634 94.5888 179.164 101.322C188.68 109.837 199.362 132.796 184.144 170.845C184.144 170.845 161.674 155.92 123.317 165.903C123.317 165.903 126.619 156.973 120.819 128.884C118.201 116.179 124.791 86.8932 160.809 96.2287Z" fill="#263238"/>
<path d="M144.387 191.713C160.417 194.308 177.456 176.562 177.456 176.562C177.456 176.562 168.737 175.487 167.963 171.394C165.465 158.486 175.523 142.538 175.523 142.538C175.523 142.538 136.601 143.613 143.401 152.422C144.831 154.273 145.809 156.041 146.478 157.703C148.84 163.503 147.2 167.874 145.944 168.942C145.854 169.017 145.748 169.085 145.658 169.13C143.304 170.206 133.63 168.603 133.63 168.603C133.63 168.603 129.763 189.336 144.387 191.713Z" fill="white" stroke="#263238" stroke-miterlimit="10" stroke-linecap="round" stroke-linejoin="round"/>
<path d="M171.935 181.474C171.935 181.474 164.54 184.431 153.715 183.551L148.841 185.943" stroke="#263238" stroke-miterlimit="10" stroke-linecap="round" stroke-linejoin="round"/>
<path d="M143.982 185.552L143.62 182.347C143.62 182.347 135.639 179.85 133.164 175.095" stroke="#263238" stroke-miterlimit="10" stroke-linecap="round" stroke-linejoin="round"/>
<path d="M145.944 168.949C157.868 172.064 163.464 156.778 163.464 156.778C163.464 156.778 153.926 153.934 146.478 157.711C148.833 163.503 147.201 167.881 145.944 168.949Z" fill="#263238"/>
<path d="M176.2 134.496C179.104 118.217 175.877 98.6812 151.105 100.299C133.404 101.457 133.547 120.865 134.721 126.658C136.692 136.399 133.871 140.236 136.902 148.42C139.084 154.303 144.154 160.878 150.119 163.345C153.79 164.865 168.647 154.438 169.746 149.669" fill="white"/>
<path d="M176.2 134.496C179.104 118.217 175.877 98.6812 151.105 100.299C133.404 101.457 133.547 120.865 134.721 126.658C136.692 136.399 133.871 140.236 136.902 148.42C139.084 154.303 144.154 160.878 150.119 163.345C153.79 164.865 168.647 154.438 169.746 149.669" stroke="#263238" stroke-miterlimit="10" stroke-linecap="round" stroke-linejoin="round"/>
<path d="M145.073 129.697C144.922 131.525 144.711 136.053 140.837 139.393C138.332 141.552 144.08 143.764 144.08 143.764" stroke="#263238" stroke-miterlimit="10" stroke-linecap="round" stroke-linejoin="round"/>
<path d="M140.957 123.242C140.957 123.242 135.489 120.579 131.795 124.972" stroke="#263238" stroke-miterlimit="10" stroke-linecap="round" stroke-linejoin="round"/>
<path d="M150.127 122.896C150.127 122.896 155.408 121.001 161.817 123.355" stroke="#263238" stroke-miterlimit="10" stroke-linecap="round" stroke-linejoin="round"/>
<path d="M155.807 130.584C155.98 132.156 157.034 133.33 158.169 133.202C159.305 133.082 160.088 131.705 159.915 130.133C159.742 128.561 158.689 127.387 157.553 127.515C156.417 127.635 155.642 129.012 155.807 130.584Z" fill="#263238"/>
<path d="M144.35 148.909C151.225 148.074 156.574 144.441 156.574 144.441C156.574 144.441 157.085 151.271 151.368 152.693C146.983 153.784 145.282 148.774 145.282 148.774" stroke="#263238" stroke-miterlimit="10" stroke-linecap="round" stroke-linejoin="round"/>
<path d="M160.433 106.505C160.433 106.505 158.868 125.792 175.892 132.803L183.866 114.26L171.8 100.893L153.618 95.642C126.454 97.3345 114.756 114.215 129.839 159.193C129.839 159.193 125.619 105.632 160.433 106.505Z" fill="#263238"/>
<path d="M172.168 133.623C171.935 131.457 177.419 125.935 179.27 129.478C182.429 135.519 180.127 140.785 176.855 142.846C175.388 143.771 173.53 145.502 172.229 143.869" fill="white"/>
<path d="M172.168 133.623C171.935 131.457 177.419 125.935 179.27 129.478C182.429 135.519 180.127 140.785 176.855 142.846C175.388 143.771 173.53 145.502 172.229 143.869" stroke="#263238" stroke-miterlimit="10" stroke-linecap="round" stroke-linejoin="round"/>
<path d="M139.227 131.299C139.4 132.871 140.453 134.045 141.589 133.917C142.725 133.796 143.508 132.42 143.335 130.848C143.161 129.275 142.108 128.102 140.972 128.23C139.844 128.358 139.062 129.727 139.227 131.299Z" fill="#263238"/>
<g opacity="0.2">
<path opacity="0.2" d="M127.431 128.132C127.228 129.441 127.085 130.757 127.01 132.081" stroke="white" stroke-miterlimit="10" stroke-linecap="round" stroke-linejoin="round"/>
<path opacity="0.2" d="M157.611 102.999C143.853 102.638 131.064 111.409 128.018 125.183" stroke="white" stroke-miterlimit="10" stroke-linecap="round" stroke-linejoin="round"/>
<path opacity="0.2" d="M155.152 99.0648C155.152 99.0648 135.307 94.4008 127.867 107.558" stroke="white" stroke-miterlimit="10" stroke-linecap="round" stroke-linejoin="round"/>
<path opacity="0.2" d="M171.25 122.001C172.461 123.686 173.875 125.243 175.53 126.515" stroke="white" stroke-miterlimit="10" stroke-linecap="round" stroke-linejoin="round"/>
<path opacity="0.2" d="M163.382 101.637C164.443 107.844 166.489 114.14 169.678 119.571" stroke="white" stroke-miterlimit="10" stroke-linecap="round" stroke-linejoin="round"/>
<path opacity="0.2" d="M183.324 161.337C182.97 162.916 182.556 164.481 182.09 166.031" stroke="white" stroke-miterlimit="10" stroke-linecap="round" stroke-linejoin="round"/>
<path opacity="0.2" d="M182.173 135.113C185.393 142.259 185.174 151.151 183.85 158.674" stroke="white" stroke-miterlimit="10" stroke-linecap="round" stroke-linejoin="round"/>
<path opacity="0.2" d="M179.811 147.563C179.811 147.563 180.796 155.537 174.214 162.269" stroke="white" stroke-miterlimit="10" stroke-linecap="round" stroke-linejoin="round"/>
<path opacity="0.2" d="M170.656 103.939C174.034 108.506 176.539 113.403 180.451 117.57C184.573 121.964 188.688 126.989 189.463 133.172" stroke="white" stroke-miterlimit="10" stroke-linecap="round" stroke-linejoin="round"/>
<path opacity="0.2" d="M165.901 99.1926C166.872 99.8245 167.752 100.577 168.549 101.412" stroke="white" stroke-miterlimit="10" stroke-linecap="round" stroke-linejoin="round"/>
</g>
<path d="M233.793 205.118C233.402 205.208 233.003 205.276 232.597 205.329C221.945 206.848 209.999 198.024 205.967 187.41C202.785 179.037 205.569 169.536 207.088 165.466C207.57 164.195 207.916 163.45 207.916 163.45C214.34 154.273 251.689 172.222 252.118 182.114C252.554 192.006 244.739 202.718 233.793 205.118Z" fill="#263238" stroke="#263238" stroke-miterlimit="10" stroke-linecap="round" stroke-linejoin="round"/>
<path d="M245.476 183.46C245.476 183.46 243.354 199.175 232.597 205.329C221.945 206.848 209.999 198.024 205.967 187.41C202.785 179.037 205.569 169.536 207.088 165.466C207.088 165.459 207.096 165.459 207.096 165.459C219.681 158.282 245.476 183.46 245.476 183.46Z" fill="white"/>
<path opacity="0.4" d="M245.476 183.46C245.476 183.46 243.354 199.175 232.597 205.329C221.945 206.848 209.999 198.024 205.967 187.41C202.785 179.037 205.569 169.536 207.088 165.466C207.088 165.459 207.096 165.459 207.096 165.459C219.681 158.282 245.476 183.46 245.476 183.46Z" fill="#B7B1E1"/>
<path d="M245.476 183.46C245.476 183.46 243.354 199.175 232.597 205.329C221.945 206.848 209.999 198.024 205.967 187.41C202.785 179.037 205.569 169.536 207.088 165.466C207.088 165.459 207.096 165.459 207.096 165.459C219.681 158.282 245.476 183.46 245.476 183.46Z" stroke="#263238" stroke-miterlimit="10" stroke-linecap="round" stroke-linejoin="round"/>
<path d="M201.438 191.735C201.438 191.735 213.565 209.143 227.73 210.594C241.887 212.046 250.945 200.115 251.539 191.118" stroke="#263238" stroke-miterlimit="10" stroke-linecap="round" stroke-linejoin="round"/>
<path d="M194.616 113.162C195.684 110.176 203.335 111.176 205.757 120.481C208.179 129.787 217.756 152.377 217.756 152.377C217.756 152.377 255.767 96.4393 262.583 94.2879C269.398 92.1289 266.697 101.825 257.595 115.276C257.595 115.276 266.126 113.771 268.36 115.283C270.602 116.788 269.511 125.822 270.699 128.989C272.7 134.293 268.255 135.414 268.255 135.414C268.255 135.414 271.753 135.384 274.19 137.671C276.635 139.957 275.409 149.421 276.101 152.099C276.8 154.777 272.136 157.034 272.136 157.034C272.136 157.034 283.345 163.149 280.81 164.677C276.545 167.257 274.107 164.616 274.107 164.616C274.107 164.616 256.888 186.244 243.904 191.058C230.92 195.873 205.629 176.735 202.914 166.309C200.198 155.883 203.44 156.53 201.379 139.175C199.333 121.82 194.616 113.162 194.616 113.162Z" fill="white" stroke="#263238" stroke-miterlimit="10" stroke-linecap="round" stroke-linejoin="round"/>
<path d="M250.072 78.814L199.994 91.8656C198.219 92.332 197.15 94.145 197.609 95.9278L221.275 186.748C221.742 188.523 223.555 189.591 225.337 189.132L275.415 176.081C277.191 175.614 278.259 173.801 277.8 172.019L254.134 81.1986C253.667 79.4158 251.847 78.3476 250.072 78.814Z" fill="white" stroke="#263238" stroke-miterlimit="10" stroke-linecap="round" stroke-linejoin="round"/>
<path d="M221.381 89.2328C221.493 89.6691 221.23 90.1129 220.801 90.2257C220.365 90.3386 219.921 90.0753 219.808 89.639C219.696 89.2027 219.959 88.7588 220.388 88.646C220.824 88.5332 221.268 88.7964 221.381 89.2328Z" fill="#B7B1E1" stroke="#263238" stroke-miterlimit="10" stroke-linecap="round" stroke-linejoin="round"/>
<path d="M231.694 86.5396C231.762 86.8105 231.604 87.0888 231.326 87.164C231.055 87.2317 230.776 87.0737 230.701 86.7954C230.633 86.5246 230.791 86.2463 231.07 86.171C231.341 86.1033 231.626 86.2688 231.694 86.5396Z" fill="#B7B1E1" stroke="#263238" stroke-miterlimit="10" stroke-linecap="round" stroke-linejoin="round"/>
<path d="M229.009 87.5402L222.998 89.1049C222.87 89.135 222.743 89.0597 222.705 88.9318L222.682 88.834C222.652 88.7062 222.728 88.5783 222.855 88.5407L228.866 86.976C228.994 86.9459 229.122 87.0211 229.159 87.149L229.182 87.2468C229.212 87.3747 229.137 87.5026 229.009 87.5402Z" fill="#B7B1E1" stroke="#263238" stroke-miterlimit="10" stroke-linecap="round" stroke-linejoin="round"/>
<path d="M252.622 82.1089L276.1 172.184C276.371 173.237 275.747 174.313 274.694 174.584L225.255 187.47C224.202 187.741 223.126 187.116 222.856 186.063L199.378 95.988C199.107 94.9348 199.731 93.8591 200.784 93.5883L210.932 90.9404C211.602 90.7673 212.309 91.0231 212.7 91.5873L213.43 92.6329C213.828 93.1971 214.536 93.4604 215.198 93.2799L237.479 87.4725C238.149 87.2994 238.638 86.7277 238.706 86.0432L238.833 84.7719C238.901 84.0873 239.39 83.5156 240.06 83.3426L250.208 80.6946C251.268 80.4238 252.344 81.0557 252.622 82.1089Z" fill="#B7B1E1" stroke="#263238" stroke-miterlimit="10" stroke-linecap="round" stroke-linejoin="round"/>
<path d="M254.342 132.684C258.936 122.106 254.085 109.807 243.506 105.213C232.928 100.619 220.629 105.471 216.035 116.049C211.442 126.627 216.293 138.927 226.871 143.52C237.45 148.114 249.749 143.262 254.342 132.684Z" fill="white" stroke="#263238" stroke-miterlimit="10" stroke-linecap="round" stroke-linejoin="round"/>
<path d="M226.563 136.339C226.909 137.212 227.902 137.64 228.805 137.377L235.666 135.399C235.681 135.542 235.711 135.692 235.756 135.835C236.192 137.347 237.772 138.212 239.277 137.776C240.789 137.34 241.654 135.76 241.217 134.255C241.172 134.112 241.12 133.969 241.059 133.842L247.92 131.863C248.823 131.6 249.44 130.712 249.266 129.787C249.063 128.726 248.01 128.094 247.002 128.388L246.423 128.042C245.174 127.289 244.256 126.101 243.85 124.702L242.541 120.181C241.413 116.284 237.599 113.907 233.695 114.478C234.206 113.937 234.424 113.155 234.206 112.387C233.875 111.236 232.664 110.567 231.513 110.898C230.362 111.229 229.693 112.44 230.024 113.591C230.242 114.358 230.851 114.9 231.573 115.088C227.97 116.69 226.007 120.737 227.128 124.634L228.444 129.2C228.91 130.81 228.647 132.548 227.729 133.954C226.721 134.233 226.165 135.339 226.563 136.339ZM233.334 112.628C233.529 113.305 233.138 114.005 232.469 114.2C231.792 114.396 231.092 114.005 230.896 113.335C230.701 112.658 231.092 111.958 231.761 111.763C232.431 111.56 233.138 111.951 233.334 112.628Z" fill="#B7B1E1" stroke="#263238" stroke-miterlimit="10" stroke-linecap="round" stroke-linejoin="round"/>
<path d="M239.811 133.947L236.779 134.827" stroke="#263238" stroke-miterlimit="10" stroke-linecap="round" stroke-linejoin="round"/>
<path d="M244.286 129.102L230.407 133.112" stroke="#263238" stroke-miterlimit="10" stroke-linecap="round" stroke-linejoin="round"/>
<path d="M258.798 157.154L230.619 164.496C227.241 165.376 223.788 163.353 222.908 159.975C222.028 156.597 224.051 153.144 227.429 152.264L255.609 144.922C258.986 144.042 262.439 146.066 263.319 149.443C264.199 152.821 262.176 156.274 258.798 157.154Z" fill="#263238"/>
<path d="M227.512 155.702C227.67 155.394 227.978 155.176 228.422 155.063C228.866 154.95 229.234 154.988 229.528 155.176C229.821 155.371 230.032 155.702 230.152 156.176L230.197 156.357L229.332 156.582L229.272 156.342C229.219 156.138 229.144 156.003 229.039 155.935C228.941 155.868 228.813 155.845 228.663 155.89C228.512 155.928 228.407 156.003 228.354 156.116C228.301 156.229 228.301 156.379 228.354 156.582C228.422 156.831 228.542 157.026 228.715 157.177C228.896 157.327 229.144 157.485 229.467 157.651C229.738 157.793 229.956 157.921 230.129 158.042C230.302 158.162 230.46 158.312 230.618 158.508C230.769 158.696 230.882 158.937 230.949 159.215C231.07 159.689 231.047 160.08 230.882 160.389C230.716 160.705 230.408 160.915 229.964 161.028C229.52 161.141 229.152 161.103 228.851 160.915C228.55 160.727 228.339 160.389 228.219 159.922L228.121 159.561L228.986 159.336L229.091 159.749C229.189 160.125 229.4 160.276 229.716 160.193C230.032 160.11 230.145 159.877 230.039 159.501C229.979 159.26 229.851 159.065 229.678 158.914C229.498 158.764 229.249 158.606 228.926 158.44C228.655 158.297 228.437 158.17 228.264 158.049C228.091 157.929 227.925 157.778 227.775 157.583C227.624 157.395 227.512 157.154 227.444 156.876C227.331 156.402 227.346 156.011 227.512 155.702Z" fill="white"/>
<path d="M232.363 158.899C232.461 159.275 232.671 159.426 232.987 159.343C233.303 159.26 233.416 159.035 233.318 158.651L232.145 154.16L233.01 153.934L234.168 158.373C234.289 158.847 234.266 159.238 234.101 159.546C233.935 159.862 233.627 160.073 233.183 160.193C232.739 160.306 232.371 160.268 232.07 160.08C231.769 159.892 231.558 159.561 231.438 159.087L230.279 154.649L231.197 154.408L232.363 158.899Z" fill="white"/>
<path d="M236.125 153.468C236.396 153.634 236.592 153.942 236.712 154.393L236.765 154.604C236.84 154.905 236.863 155.161 236.81 155.386C236.765 155.604 236.652 155.785 236.479 155.935C236.983 155.996 237.314 156.349 237.487 157.004L237.607 157.478C237.728 157.929 237.698 158.298 237.525 158.598C237.352 158.899 237.036 159.102 236.584 159.223L235.147 159.599L233.628 153.776L235.012 153.415C235.478 153.287 235.855 153.31 236.125 153.468ZM235.163 155.905L235.516 155.815C235.697 155.77 235.824 155.687 235.892 155.567C235.96 155.446 235.96 155.281 235.907 155.055L235.825 154.732C235.772 154.521 235.689 154.378 235.591 154.303C235.494 154.228 235.358 154.213 235.2 154.25L234.756 154.363L235.163 155.905ZM235.847 158.523L236.374 158.388C236.532 158.343 236.644 158.275 236.697 158.17C236.75 158.064 236.75 157.906 236.697 157.696L236.562 157.192C236.494 156.928 236.396 156.755 236.283 156.673C236.163 156.597 235.998 156.582 235.787 156.635L235.381 156.74L235.847 158.523Z" fill="white"/>
<path d="M237.313 153.145C237.471 152.836 237.78 152.618 238.224 152.505C238.667 152.392 239.036 152.43 239.329 152.626C239.623 152.821 239.833 153.152 239.954 153.626L239.999 153.807L239.134 154.032L239.074 153.792C239.021 153.588 238.946 153.453 238.84 153.385C238.743 153.318 238.615 153.295 238.464 153.34C238.314 153.378 238.216 153.453 238.156 153.566C238.103 153.679 238.103 153.837 238.156 154.032C238.216 154.273 238.336 154.476 238.517 154.619C238.698 154.77 238.946 154.927 239.269 155.093C239.54 155.236 239.758 155.364 239.931 155.484C240.104 155.605 240.27 155.755 240.42 155.951C240.571 156.139 240.684 156.379 240.751 156.658C240.872 157.132 240.849 157.523 240.684 157.831C240.518 158.147 240.21 158.358 239.766 158.471C239.322 158.583 238.953 158.546 238.652 158.358C238.352 158.17 238.141 157.839 238.021 157.365L237.93 157.004L238.795 156.778L238.901 157.192C238.998 157.568 239.209 157.718 239.525 157.636C239.841 157.553 239.954 157.32 239.848 156.944C239.788 156.695 239.66 156.5 239.487 156.357C239.307 156.206 239.059 156.048 238.735 155.883C238.464 155.74 238.246 155.612 238.073 155.492C237.9 155.371 237.735 155.221 237.584 155.025C237.434 154.837 237.321 154.596 237.246 154.318C237.133 153.852 237.148 153.453 237.313 153.145Z" fill="white"/>
<path d="M243.926 155.815C244.046 156.289 244.023 156.68 243.858 156.996C243.692 157.312 243.384 157.523 242.94 157.636C242.496 157.748 242.128 157.711 241.827 157.523C241.526 157.335 241.315 156.996 241.195 156.53L240.405 153.498C240.285 153.024 240.307 152.633 240.473 152.325C240.638 152.009 240.947 151.798 241.391 151.685C241.834 151.572 242.203 151.61 242.504 151.798C242.805 151.986 243.015 152.325 243.136 152.791L243.286 153.355L242.421 153.581L242.256 152.956C242.158 152.573 241.947 152.422 241.631 152.505C241.315 152.588 241.21 152.821 241.308 153.205L242.128 156.349C242.226 156.725 242.436 156.876 242.752 156.793C243.068 156.71 243.181 156.485 243.083 156.101L242.865 155.266L243.73 155.04L243.926 155.815Z" fill="white"/>
<path d="M246.626 156.319C246.596 156.236 246.551 156.093 246.491 155.875L246.25 154.957C246.183 154.694 246.085 154.514 245.957 154.423C245.836 154.333 245.663 154.318 245.453 154.371L245.137 154.453L245.754 156.823L244.836 157.064L243.316 151.241L244.701 150.88C245.174 150.76 245.543 150.775 245.821 150.94C246.092 151.106 246.288 151.414 246.408 151.866L246.529 152.325C246.687 152.926 246.589 153.37 246.235 153.664C246.476 153.694 246.671 153.807 246.814 153.987C246.965 154.168 247.078 154.423 247.16 154.747L247.394 155.65C247.439 155.815 247.476 155.95 247.514 156.048C247.552 156.146 247.604 156.244 247.679 156.334L246.747 156.575C246.702 156.485 246.656 156.402 246.626 156.319ZM244.926 153.626L245.28 153.536C245.46 153.491 245.588 153.408 245.656 153.287C245.724 153.167 245.724 153.002 245.671 152.776L245.521 152.204C245.468 151.994 245.385 151.851 245.287 151.775C245.19 151.7 245.062 151.685 244.896 151.723L244.452 151.836L244.926 153.626Z" fill="white"/>
<path d="M247.59 150.135L249.109 155.958L248.191 156.199L246.672 150.376L247.59 150.135Z" fill="white"/>
<path d="M250.757 149.662C251.027 149.827 251.23 150.135 251.343 150.587L251.396 150.797C251.471 151.098 251.486 151.354 251.441 151.58C251.396 151.798 251.283 151.986 251.11 152.129C251.614 152.189 251.945 152.543 252.118 153.197L252.246 153.671C252.366 154.122 252.336 154.491 252.163 154.792C251.99 155.093 251.674 155.296 251.223 155.416L249.786 155.792L248.267 149.97L249.651 149.609C250.11 149.473 250.478 149.496 250.757 149.662ZM249.794 152.091L250.147 152.001C250.328 151.956 250.456 151.873 250.523 151.753C250.591 151.632 250.599 151.467 250.538 151.241L250.456 150.918C250.403 150.707 250.32 150.564 250.222 150.489C250.125 150.414 249.997 150.399 249.831 150.436L249.387 150.549L249.794 152.091ZM250.471 154.717L250.997 154.581C251.155 154.536 251.268 154.468 251.321 154.363C251.373 154.258 251.373 154.1 251.321 153.889L251.185 153.385C251.118 153.122 251.02 152.949 250.899 152.866C250.779 152.791 250.614 152.776 250.403 152.829L249.997 152.934L250.471 154.717Z" fill="white"/>
<path d="M254.45 150.97L254.668 151.805L253.412 152.136L253.856 153.844L255.436 153.43L255.654 154.265L253.156 154.912L251.637 149.09L254.134 148.443L254.352 149.278L252.773 149.692L253.194 151.316L254.45 150.97Z" fill="white"/>
<path d="M256.143 147.901C256.594 147.781 256.97 147.819 257.263 147.999C257.557 148.187 257.76 148.511 257.888 148.985L258.655 151.933C258.775 152.407 258.76 152.791 258.595 153.099C258.429 153.4 258.121 153.611 257.67 153.731L256.218 154.107L254.698 148.285L256.143 147.901ZM256.917 153.032L257.436 152.896C257.587 152.859 257.692 152.783 257.745 152.671C257.805 152.558 257.805 152.407 257.752 152.204L256.963 149.173C256.91 148.97 256.835 148.842 256.729 148.774C256.624 148.706 256.496 148.691 256.353 148.729L255.834 148.864L256.917 153.032Z" fill="white"/>
<path d="M190.321 236.908C190.321 236.908 181.767 217.011 186.131 192.879" stroke="#263238" stroke-miterlimit="10" stroke-linecap="round" stroke-linejoin="round"/>
<path d="M169.46 258.408C169.46 258.408 152.173 263.696 150.421 267.668C148.668 271.647 158.176 268.3 158.176 268.3" stroke="#263238" stroke-miterlimit="10" stroke-linecap="round" stroke-linejoin="round"/>
<path d="M180.09 176.818C180.09 176.818 164.172 192.593 153.521 196.805" stroke="#263238" stroke-miterlimit="10" stroke-linecap="round" stroke-linejoin="round"/>
<path d="M127.928 172.575C127.928 172.575 125.032 193.872 135.85 197.896" stroke="#263238" stroke-miterlimit="10" stroke-linecap="round" stroke-linejoin="round"/>
<path d="M97.2892 215.582C97.2892 215.582 97.1989 187.658 102.751 179.022" stroke="#263238" stroke-miterlimit="10" stroke-linecap="round" stroke-linejoin="round"/>
<path d="M95.2202 187.139C95.2202 187.139 93.6631 204.478 97.1535 210.135" stroke="#263238" stroke-miterlimit="10" stroke-linecap="round" stroke-linejoin="round"/>
<path d="M83.8237 219.704C83.8237 219.704 71.7199 215.537 69.2073 220.705C66.6948 225.873 76.429 221.291 76.429 221.291" stroke="#263238" stroke-miterlimit="10" stroke-linecap="round" stroke-linejoin="round"/>
<path d="M91.1051 237.811C91.1051 237.811 79.2194 244.506 78.6025 248.343" stroke="#263238" stroke-miterlimit="10" stroke-linecap="round" stroke-linejoin="round"/>
<path d="M110.521 219.283C110.521 219.283 133.277 253.676 145.84 250.517" stroke="#263238" stroke-miterlimit="10" stroke-linecap="round" stroke-linejoin="round"/>
<path d="M126.071 267.525C126.071 267.525 108.227 280.607 105.632 279.501" stroke="#263238" stroke-miterlimit="10" stroke-linecap="round" stroke-linejoin="round"/>
<path opacity="0.2" d="M251.058 211.708C252.261 210.722 253.059 210.068 253.314 209.857C253.044 210.098 252.261 210.775 251.058 211.708Z" fill="black"/>
</g>
<defs>
<clipPath id="clip0">
<rect width="305.68" height="300" fill="white"/>
</clipPath>
</defs>
</svg>
