<svg width="141" height="300" viewBox="0 0 141 300" fill="none" xmlns="http://www.w3.org/2000/svg">
<g clip-path="url(#clip0)">
<path opacity="0.2" d="M137.753 104.826L136.069 104.673C135.852 100.782 133.658 97.3507 130.392 95.4882L130.839 90.5001C131.4 84.3766 126.884 78.9675 120.761 78.4062L53.4149 72.2955C47.2914 71.7341 41.8823 76.2502 41.321 82.3737L40.8745 87.3618C37.328 88.612 34.5469 91.5972 33.6411 95.3861L30.7707 95.131C22.7847 94.4166 5.86855 281.068 13.8418 281.795L16.7122 282.05C17.0184 287.562 21.3048 292.18 26.9691 292.69L107.149 299.962C112.813 300.472 117.865 296.709 119.153 291.338L120.837 291.491C130.392 292.358 147.321 105.694 137.753 104.826Z" fill="#00365F"/>
<path d="M109.968 280.698L2.97272 271.003C-5.00058 270.276 11.9283 83.6239 19.8889 84.3511L126.884 94.0466C136.452 94.9013 119.523 281.566 109.968 280.698Z" fill="white" stroke="#00365F" stroke-width="1.3907" stroke-miterlimit="10" stroke-linecap="round" stroke-linejoin="round"/>
<path d="M119.421 85.8947L29.8906 77.7811L30.4519 71.5938C31.0133 65.4703 36.4223 60.9542 42.5458 61.5156L109.891 67.6135C116.015 68.1749 120.531 73.5839 119.97 79.7074L119.421 85.8947Z" fill="#8DCCC3" stroke="#00365F" stroke-width="1.3907" stroke-miterlimit="10" stroke-linecap="round" stroke-linejoin="round"/>
<path d="M96.2797 289.169L16.1002 281.897C9.87466 281.336 5.2948 275.838 5.85612 269.612L22.4788 86.2264C23.0402 80.0008 28.5385 75.421 34.7641 75.9823L114.944 83.254C121.169 83.8153 125.749 89.3137 125.188 95.5392L108.565 278.925C108.004 285.138 102.505 289.73 96.2797 289.169Z" fill="white" stroke="#00365F" stroke-width="1.3907" stroke-miterlimit="10" stroke-linecap="round" stroke-linejoin="round"/>
<path d="M114.9 99.6299L31.8604 92.1006L25.3436 163.973L108.383 171.502L114.9 99.6299Z" fill="#00A298" stroke="#00365F" stroke-width="1.3907" stroke-miterlimit="10" stroke-linecap="round" stroke-linejoin="round"/>
<path d="M69.9598 156.099C79.2625 155.815 86.5736 148.044 86.2897 138.741C86.0059 129.438 78.2345 122.127 68.9318 122.411C59.6292 122.695 52.318 130.466 52.6019 139.769C52.8858 149.072 60.6572 156.383 69.9598 156.099Z" fill="#EFEF43" stroke="#00365F" stroke-width="1.3907" stroke-miterlimit="10" stroke-linecap="round" stroke-linejoin="round"/>
<path d="M64.6927 149.911C63.9783 149.847 63.3022 149.515 62.8047 148.916L55.5713 140.241L59.845 136.669L65.3051 143.213L79.6698 131.234L83.2418 135.52L66.7211 149.273C66.1343 149.77 65.4071 149.974 64.6927 149.911Z" fill="#00365F"/>
<path d="M114.9 99.6342L31.8604 92.1049L31.3662 97.5553L114.406 105.085L114.9 99.6342Z" fill="white" stroke="#00365F" stroke-width="1.3907" stroke-miterlimit="10" stroke-linecap="round" stroke-linejoin="round"/>
<path d="M108.827 166.621L25.7871 159.092L25.2929 164.542L108.333 172.072L108.827 166.621Z" fill="white" stroke="#00365F" stroke-width="1.3907" stroke-miterlimit="10" stroke-linecap="round" stroke-linejoin="round"/>
<path d="M95.1826 281.234L18.6134 274.294C15.0286 273.975 12.4006 270.799 12.7196 267.227L20.1953 184.776C50.5832 193.987 80.3969 196.449 109.726 192.89L102.25 275.34C101.918 278.925 98.7546 281.566 95.1826 281.234Z" fill="#C2E0E3"/>
<path d="M42.2785 211.975L27.3525 210.623C25.5793 210.457 24.2653 208.888 24.4311 207.114L25.1583 199.154C25.3241 197.38 26.8933 196.067 28.6665 196.232L43.5925 197.585C45.3658 197.75 46.6798 199.32 46.514 201.093L45.7868 209.053C45.6209 210.827 44.0518 212.141 42.2785 211.975Z" fill="#8DCCC3" stroke="#00365F" stroke-width="1.3907" stroke-miterlimit="10" stroke-linecap="round" stroke-linejoin="round"/>
<path d="M40.5559 230.958L25.6299 229.605C23.8566 229.44 22.5426 227.87 22.7085 226.097L23.4356 218.137C23.6015 216.363 25.1706 215.049 26.9439 215.215L41.8826 216.567C43.6559 216.733 44.9699 218.302 44.8041 220.076L44.0769 228.036C43.9111 229.809 42.3419 231.123 40.5559 230.958Z" fill="#8DCCC3" stroke="#00365F" stroke-width="1.3907" stroke-miterlimit="10" stroke-linecap="round" stroke-linejoin="round"/>
<path d="M38.8459 249.94L23.9199 248.588C22.1467 248.422 20.8327 246.853 20.9985 245.08L21.7257 237.119C21.8915 235.346 23.4607 234.032 25.2339 234.198L40.1599 235.55C41.9332 235.716 43.2472 237.285 43.0813 239.059L42.3542 247.019C42.1883 248.792 40.6192 250.094 38.8459 249.94Z" fill="#8DCCC3" stroke="#00365F" stroke-width="1.3907" stroke-miterlimit="10" stroke-linecap="round" stroke-linejoin="round"/>
<path d="M37.1242 268.911L22.1982 267.558C20.425 267.392 19.111 265.823 19.2768 264.05L20.004 256.089C20.1698 254.316 21.739 253.002 23.5122 253.168L38.4382 254.52C40.2115 254.686 41.5255 256.255 41.3596 258.029L40.6325 265.989C40.4666 267.762 38.8975 269.076 37.1242 268.911Z" fill="#00A298" stroke="#00365F" stroke-width="1.3907" stroke-miterlimit="10" stroke-linecap="round" stroke-linejoin="round"/>
<path d="M70.1526 214.501L55.2266 213.148C53.4533 212.983 52.1393 211.413 52.3051 209.64L53.0323 201.68C53.1981 199.906 54.7673 198.592 56.5406 198.758L71.4793 200.111C73.2526 200.276 74.5666 201.846 74.4007 203.619L73.6736 211.579C73.5077 213.353 71.9386 214.667 70.1526 214.501Z" fill="#8DCCC3" stroke="#00365F" stroke-width="1.3907" stroke-miterlimit="10" stroke-linecap="round" stroke-linejoin="round"/>
<path d="M68.4436 233.484L53.5176 232.131C51.7443 231.965 50.4303 230.396 50.5962 228.623L51.3233 220.663C51.4892 218.889 53.0583 217.575 54.8316 217.741L69.7703 219.093C71.5436 219.259 72.8576 220.828 72.6918 222.602L71.9646 230.562C71.786 232.335 70.2168 233.649 68.4436 233.484Z" fill="#8DCCC3" stroke="#00365F" stroke-width="1.3907" stroke-miterlimit="10" stroke-linecap="round" stroke-linejoin="round"/>
<path d="M66.7209 252.466L51.7949 251.114C50.0217 250.948 48.7077 249.379 48.8735 247.606L49.6007 239.645C49.7665 237.872 51.3357 236.558 53.1089 236.724L68.0349 238.076C69.8082 238.242 71.1222 239.811 70.9563 241.584L70.2292 249.545C70.0633 251.318 68.4942 252.619 66.7209 252.466Z" fill="#8DCCC3" stroke="#00365F" stroke-width="1.3907" stroke-miterlimit="10" stroke-linecap="round" stroke-linejoin="round"/>
<path d="M64.9992 271.436L50.0732 270.084C48.3 269.918 46.986 268.349 47.1518 266.576L47.879 258.615C48.0448 256.842 49.614 255.528 51.3872 255.694L66.3132 257.046C68.0865 257.212 69.4005 258.781 69.2347 260.555L68.5075 268.515C68.3416 270.288 66.7725 271.602 64.9992 271.436Z" fill="#EFEF43" stroke="#00365F" stroke-width="1.3907" stroke-miterlimit="10" stroke-linecap="round" stroke-linejoin="round"/>
<path d="M98.0403 217.027L83.1016 215.674C81.3283 215.509 80.0143 213.939 80.1801 212.166L80.9073 204.206C81.0731 202.432 82.6423 201.118 84.4156 201.284L99.3416 202.636C101.115 202.802 102.429 204.371 102.263 206.145L101.536 214.105C101.383 215.891 99.8136 217.193 98.0403 217.027Z" fill="#8DCCC3" stroke="#00365F" stroke-width="1.3907" stroke-miterlimit="10" stroke-linecap="round" stroke-linejoin="round"/>
<path d="M96.3177 236.01L81.3789 234.657C79.6056 234.491 78.2916 232.922 78.4575 231.149L79.1846 223.188C79.3505 221.415 80.9196 220.101 82.6929 220.267L97.6317 221.619C99.4049 221.785 100.719 223.354 100.553 225.128L99.8259 233.088C99.6601 234.861 98.0909 236.175 96.3177 236.01Z" fill="#8DCCC3" stroke="#00365F" stroke-width="1.3907" stroke-miterlimit="10" stroke-linecap="round" stroke-linejoin="round"/>
<path d="M94.5959 254.992L79.6699 253.64C77.8967 253.474 76.5827 251.905 76.7485 250.132L77.4757 242.171C77.6415 240.398 79.2107 239.084 80.9839 239.25L95.9099 240.602C97.6832 240.768 98.9972 242.337 98.8313 244.11L98.1042 252.071C97.9383 253.844 96.3692 255.145 94.5959 254.992Z" fill="#8DCCC3" stroke="#00365F" stroke-width="1.3907" stroke-miterlimit="10" stroke-linecap="round" stroke-linejoin="round"/>
<path d="M92.8733 273.962L77.9473 272.61C76.174 272.444 74.86 270.875 75.0258 269.102L75.753 261.141C75.9189 259.368 77.488 258.054 79.2613 258.22L94.2 259.572C95.9733 259.738 97.2873 261.307 97.1214 263.08L96.3943 271.041C96.2157 272.827 94.6465 274.128 92.8733 273.962Z" fill="#00A298" stroke="#00365F" stroke-width="1.3907" stroke-miterlimit="10" stroke-linecap="round" stroke-linejoin="round"/>
<path d="M79.6745 173.836L54.4297 171.547L52.8503 188.966L78.0951 191.255L79.6745 173.836Z" fill="#EFEF43" stroke="#00365F" stroke-width="1.3907" stroke-miterlimit="10" stroke-linecap="round" stroke-linejoin="round"/>
<path d="M72.2068 106.625C67.9841 106.268 64.0166 107.659 60.9932 110.159L62.3837 112.073C64.9607 109.878 68.3796 108.679 72.0027 108.985C75.6258 109.292 78.7768 111.052 80.9455 113.642L82.655 112.009C80.1036 109.011 76.4167 106.982 72.2068 106.625Z" fill="white"/>
<path d="M71.8494 110.746C68.6729 110.478 65.6749 111.55 63.4424 113.501L64.8584 115.428C66.6317 113.795 69.0556 112.889 71.6581 113.106C74.2478 113.323 76.4931 114.637 77.9729 116.538L79.6824 114.892C77.7943 112.583 75.0387 111.014 71.8494 110.746Z" fill="white"/>
<path d="M71.4801 115.236C69.4134 115.058 67.4998 115.823 66.1348 117.163L67.5636 119.102C68.4693 118.069 69.8216 117.482 71.2887 117.597C72.7558 117.724 73.9805 118.541 74.6949 119.701L76.4299 118.03C75.2817 116.487 73.5212 115.415 71.4801 115.236Z" fill="white"/>
<path d="M115.301 7.09882L46.834 0.890793L40.626 69.3579L109.093 75.5659L115.301 7.09882Z" fill="white" stroke="#00365F" stroke-width="1.3907" stroke-miterlimit="10" stroke-linecap="round" stroke-linejoin="round"/>
<path d="M104.24 65.4518L46.623 60.2275L46.2014 64.8775L103.818 70.1018L104.24 65.4518Z" fill="#C2E0E3"/>
<path d="M105.07 56.395L47.4531 51.1708L47.0315 55.8208L104.649 61.045L105.07 56.395Z" fill="#C2E0E3"/>
<path d="M105.887 47.3372L48.2695 42.113L47.8479 46.763L105.465 51.9872L105.887 47.3372Z" fill="#C2E0E3"/>
<path d="M106.703 38.2919L49.0859 33.0676L48.6643 37.7177L106.281 42.9419L106.703 38.2919Z" fill="#C2E0E3"/>
<path d="M108.579 17.6773L50.9619 12.453L50.5403 17.1031L108.157 22.3273L108.579 17.6773Z" fill="#C2E0E3"/>
</g>
<defs>
<clipPath id="clip0">
<rect width="140.585" height="300" fill="white"/>
</clipPath>
</defs>
</svg>
