<svg width="27" height="27" viewBox="0 0 27 27" fill="none" xmlns="http://www.w3.org/2000/svg">
<g clip-path="url(#clip0)">
<path d="M18.5612 0C17.1218 0.0995619 15.4394 1.02093 14.459 2.22074C13.5646 3.30917 12.8288 4.92578 13.1157 6.49684C14.6885 6.54577 16.3135 5.60247 17.2551 4.38241C18.136 3.24673 18.8025 1.64024 18.5612 0Z" fill="black"/>
<path d="M24.2499 9.05844C22.8679 7.32539 20.9256 6.31964 19.0913 6.31964C16.6697 6.31964 15.6454 7.47895 13.963 7.47895C12.2283 7.47895 10.9103 6.32302 8.81616 6.32302C6.75911 6.32302 4.56875 7.5802 3.17995 9.73006C1.22752 12.7574 1.56165 18.4493 4.72569 23.2975C5.858 25.0322 7.36999 26.983 9.34772 26.9998C11.1078 27.0167 11.6039 25.8709 13.9883 25.8591C16.3727 25.8456 16.825 27.015 18.5817 26.9965C20.5611 26.9813 22.1558 24.8196 23.2881 23.0849C24.0998 21.8412 24.4018 21.2151 25.0313 19.8111C20.4531 18.0679 19.719 11.5576 24.2499 9.05844Z" fill="black"/>
</g>
<defs>
<clipPath id="clip0">
<rect width="27" height="27" fill="white"/>
</clipPath>
</defs>
</svg>
