<svg width="22" height="16" viewBox="0 0 22 16" fill="none" xmlns="http://www.w3.org/2000/svg">
<path d="M0.299601 8.72334L6.84644 15.2702C7.24588 15.6696 7.89369 15.6696 8.29313 15.2702C8.69265 14.8707 8.69265 14.223 8.29313 13.8235L3.49258 9.02294L20.9771 9.02294C21.542 9.02294 22 8.56491 22 8C22 7.43517 21.542 6.97706 20.9771 6.97706L3.49258 6.97705L8.29297 2.1765C8.69249 1.77698 8.69249 1.12933 8.29297 0.729813C8.09329 0.530217 7.83141 0.430215 7.56962 0.430215C7.30783 0.430215 7.04604 0.530217 6.84628 0.729813L0.299601 7.27665C-0.0999196 7.67617 -0.0999196 8.32382 0.299601 8.72334Z" fill="white"/>
</svg>
