<svg width="20" height="20" viewBox="0 0 20 20" fill="none" xmlns="http://www.w3.org/2000/svg">
<path d="M12.5 8.33333L16.2942 6.43667C16.4212 6.3732 16.5623 6.34323 16.7042 6.34962C16.846 6.35601 16.9839 6.39854 17.1047 6.47317C17.2255 6.5478 17.3252 6.65206 17.3944 6.77606C17.4636 6.90006 17.4999 7.03967 17.5 7.18167V12.8183C17.4999 12.9603 17.4636 13.0999 17.3944 13.2239C17.3252 13.3479 17.2255 13.4522 17.1047 13.5268C16.9839 13.6015 16.846 13.644 16.7042 13.6504C16.5623 13.6568 16.4212 13.6268 16.2942 13.5633L12.5 11.6667V8.33333Z" stroke="#2C3E50" stroke-width="1.25" stroke-linecap="round" stroke-linejoin="round"/>
<path d="M10.8333 5H4.16667C3.24619 5 2.5 5.74619 2.5 6.66667V13.3333C2.5 14.2538 3.24619 15 4.16667 15H10.8333C11.7538 15 12.5 14.2538 12.5 13.3333V6.66667C12.5 5.74619 11.7538 5 10.8333 5Z" stroke="#2C3E50" stroke-width="1.25" stroke-linecap="round" stroke-linejoin="round"/>
</svg>
