<svg width="20" height="20" viewBox="0 0 20 20" fill="none" xmlns="http://www.w3.org/2000/svg">
<path d="M7.50065 5.83333H5.00065C4.55862 5.83333 4.1347 6.00893 3.82214 6.32149C3.50958 6.63405 3.33398 7.05797 3.33398 7.5V15C3.33398 15.442 3.50958 15.8659 3.82214 16.1785C4.1347 16.4911 4.55862 16.6667 5.00065 16.6667H12.5007C12.9427 16.6667 13.3666 16.4911 13.6792 16.1785C13.9917 15.8659 14.1673 15.442 14.1673 15V12.5" stroke="white" stroke-width="1.25" stroke-linecap="round" stroke-linejoin="round"/>
<path d="M7.5 12.5H10L17.0833 5.41667C17.4149 5.08515 17.6011 4.63551 17.6011 4.16667C17.6011 3.69782 17.4149 3.24819 17.0833 2.91667C16.7518 2.58515 16.3022 2.3989 15.8333 2.3989C15.3645 2.3989 14.9149 2.58515 14.5833 2.91667L7.5 10V12.5Z" stroke="white" stroke-width="1.25" stroke-linecap="round" stroke-linejoin="round"/>
<path d="M13.334 4.16667L15.834 6.66667" stroke="white" stroke-width="1.25" stroke-linecap="round" stroke-linejoin="round"/>
</svg>
