<svg width="12" height="8" viewBox="0 0 12 8" fill="none" xmlns="http://www.w3.org/2000/svg">
<path d="M6 0.0793915C3.35322 0.0793915 1.07204 1.63966 0.0241377 3.89124C-0.00804592 3.95947 -0.00804592 4.03929 0.0241377 4.1088C1.07204 6.36037 3.35323 7.92066 6 7.92066C8.64677 7.92066 10.928 6.36038 11.9759 4.1088C12.008 4.04058 12.008 3.96076 11.9759 3.89124C10.928 1.63966 8.64678 0.0793915 6 0.0793915ZM6 6.70541C4.50539 6.70541 3.29528 5.494 3.29528 4.00067C3.29528 2.50605 4.50668 1.29594 6 1.29594C7.49461 1.29594 8.70471 2.50734 8.70471 4.00067C8.70471 5.494 7.49332 6.70541 6 6.70541Z" fill="#909090"/>
<path d="M5.99985 5.73085C6.95612 5.73085 7.73133 4.95563 7.73133 3.99936C7.73133 3.04309 6.95612 2.26788 5.99985 2.26788C5.04358 2.26788 4.26837 3.04309 4.26837 3.99936C4.26837 4.95563 5.04358 5.73085 5.99985 5.73085Z" fill="#909090"/>
</svg>
