<svg width="16" height="16" viewBox="0 0 16 16" fill="none" xmlns="http://www.w3.org/2000/svg">
<g clip-path="url(#clip0)">
<path d="M8 3.23125C4.94303 3.23125 2.17081 4.90375 0.125192 7.62033C-0.0417306 7.84289 -0.0417306 8.15382 0.125192 8.37638C2.17081 11.0962 4.94303 12.7687 8 12.7687C11.057 12.7687 13.8292 11.0962 15.8748 8.37966C16.0417 8.15709 16.0417 7.84616 15.8748 7.6236C13.8292 4.90375 11.057 3.23125 8 3.23125ZM8.21929 11.3581C6.19004 11.4857 4.51427 9.81322 4.64191 7.7807C4.74665 6.10493 6.10494 4.74665 7.78071 4.64191C9.80996 4.51426 11.4857 6.18676 11.3581 8.21928C11.2501 9.89178 9.89179 11.2501 8.21929 11.3581ZM8.11783 9.80668C7.02465 9.87541 6.1213 8.97534 6.19331 7.88216C6.24895 6.97882 6.9821 6.24895 7.88545 6.19003C8.97862 6.1213 9.88197 7.02137 9.80996 8.11455C9.75105 9.02116 9.0179 9.75104 8.11783 9.80668Z" fill="#606060"/>
</g>
<defs>
<clipPath id="clip0">
<rect width="16" height="16" fill="white"/>
</clipPath>
</defs>
</svg>
