<svg width="25" height="25" viewBox="0 0 25 25" fill="none" xmlns="http://www.w3.org/2000/svg">
<path d="M23.4386 12.7429C23.4386 11.8436 23.3641 11.1874 23.203 10.5068H12.7243V14.5658H18.8751C18.7511 15.5745 18.0815 17.0936 16.5933 18.1144L16.5725 18.2503L19.8856 20.7656L20.1152 20.7881C22.2233 18.8801 23.4386 16.0728 23.4386 12.7429Z" fill="#4285F4"/>
<path d="M12.7236 23.4375C15.737 23.4375 18.2667 22.4652 20.1144 20.7882L16.5926 18.1145C15.6502 18.7586 14.3853 19.2082 12.7236 19.2082C9.77226 19.2082 7.26732 17.3003 6.37439 14.6631L6.2435 14.674L2.79844 17.2869L2.75339 17.4096C4.58868 20.9826 8.35851 23.4375 12.7236 23.4375Z" fill="#34A853"/>
<path d="M6.37504 14.6632C6.13943 13.9826 6.00307 13.2534 6.00307 12.5C6.00307 11.7465 6.13943 11.0173 6.36264 10.3368L6.3564 10.1918L2.86816 7.537L2.75403 7.5902C1.99762 9.07286 1.56358 10.7378 1.56358 12.5C1.56358 14.2621 1.99762 15.927 2.75403 17.4097L6.37504 14.6632Z" fill="#FBBC05"/>
<path d="M12.7237 5.79164C14.8194 5.79164 16.233 6.67879 17.0391 7.42016L20.1889 4.40625C18.2545 2.6441 15.737 1.5625 12.7237 1.5625C8.35855 1.5625 4.58869 4.01734 2.75339 7.59023L6.36201 10.3368C7.26735 7.69965 9.77229 5.79164 12.7237 5.79164Z" fill="#EB4335"/>
</svg>
