<svg width="20" height="20" viewBox="0 0 20 20" fill="none" xmlns="http://www.w3.org/2000/svg">
<path d="M5.38849 13.1822H1.99219C1.66855 13.1822 1.40625 13.4445 1.40625 13.7682V19.4141C1.40625 19.7377 1.66855 20 1.99219 20H5.38864C5.71213 20 5.97458 19.7377 5.97458 19.4141V13.7682C5.97443 13.4445 5.71213 13.1822 5.38849 13.1822Z" fill="url(#paint0_linear)"/>
<path d="M11.6914 10.0264H8.29492C7.97128 10.0264 7.70898 10.2887 7.70898 10.6123V19.4141C7.70898 19.7377 7.97128 20 8.29492 20H11.6914C12.0149 20 12.2773 19.7377 12.2773 19.4141V10.6123C12.2773 10.2887 12.0149 10.0264 11.6914 10.0264Z" fill="url(#paint1_linear)"/>
<path d="M17.9937 5.26016H14.5974C14.2738 5.26016 14.0115 5.52246 14.0115 5.8461V19.4141C14.0115 19.7377 14.2738 20 14.5974 20H17.9937C18.3174 20 18.5797 19.7377 18.5797 19.4141V5.8461C18.5797 5.52246 18.3174 5.26016 17.9937 5.26016Z" fill="url(#paint2_linear)"/>
<path d="M2.03115 7.36665C2.123 7.36665 2.21623 7.34499 2.30336 7.29921L8.42305 4.08113L10.859 5.34395C11.0337 5.43459 11.2423 5.43138 11.4141 5.3354L16.8409 2.30714L16.6321 2.85799C16.5174 3.16057 16.6697 3.49886 16.9722 3.6136C17.0406 3.63939 17.1108 3.65175 17.1798 3.65175C17.4163 3.65175 17.6391 3.50755 17.7279 3.27333L18.5036 1.22667C18.5225 1.17708 18.5334 1.12566 18.5383 1.07378C18.5418 1.04066 18.5424 1.00679 18.5398 0.973678C18.534 0.89006 18.5109 0.806442 18.4675 0.728469C18.3675 0.549331 18.1876 0.443435 17.9972 0.429855L15.8979 0.0114588C15.5806 -0.0518652 15.272 0.154128 15.2088 0.471511C15.1455 0.788894 15.3515 1.09743 15.6688 1.16075L16.2743 1.2813L11.1184 4.15849L8.69084 2.89995C8.52071 2.81175 8.31807 2.81236 8.14855 2.90163L1.75786 6.26192C1.47145 6.41267 1.36144 6.76683 1.51204 7.05324C1.61687 7.25267 1.82042 7.36665 2.03115 7.36665Z" fill="url(#paint3_linear)"/>
<defs>
<linearGradient id="paint0_linear" x1="3.69041" y1="13.1822" x2="3.69041" y2="20" gradientUnits="userSpaceOnUse">
<stop stop-color="#667CE6"/>
<stop offset="0.5" stop-color="#6E61C2"/>
<stop offset="1" stop-color="#744EA6"/>
</linearGradient>
<linearGradient id="paint1_linear" x1="9.99315" y1="10.0264" x2="9.99315" y2="20" gradientUnits="userSpaceOnUse">
<stop stop-color="#667CE6"/>
<stop offset="0.5" stop-color="#6E61C2"/>
<stop offset="1" stop-color="#744EA6"/>
</linearGradient>
<linearGradient id="paint2_linear" x1="16.2956" y1="5.26016" x2="16.2956" y2="20" gradientUnits="userSpaceOnUse">
<stop stop-color="#667CE6"/>
<stop offset="0.5" stop-color="#6E61C2"/>
<stop offset="1" stop-color="#744EA6"/>
</linearGradient>
<linearGradient id="paint3_linear" x1="9.99298" y1="2.09808e-05" x2="9.99298" y2="7.36665" gradientUnits="userSpaceOnUse">
<stop stop-color="#667CE6"/>
<stop offset="0.5" stop-color="#6E61C2"/>
<stop offset="1" stop-color="#744EA6"/>
</linearGradient>
</defs>
</svg>
