<svg width="20" height="20" viewBox="0 0 20 20" fill="none" xmlns="http://www.w3.org/2000/svg">
<path d="M19.6105 12.6278L13.337 18.9019C13.0776 19.1607 12.7374 19.2904 12.3962 19.2904C12.284 19.2904 12.1735 19.2708 12.064 19.2431C12.2862 19.1862 12.4972 19.0757 12.6726 18.9008L18.9461 12.6268C19.4664 12.1075 19.4664 11.2661 18.9461 10.7484L9.2953 1.09865C9.1183 0.921653 8.8956 0.808439 8.65801 0.75263L8.78717 0.729774C9.2161 0.654299 9.65301 0.79143 9.9597 1.09865L19.61 10.7489C20.1298 11.2677 20.1298 12.1091 19.6105 12.6278ZM18.1929 12.6278L11.9194 18.9019C11.66 19.1607 11.3199 19.2904 10.9786 19.2904C10.6384 19.2904 10.2988 19.1607 10.0389 18.9019L0.389163 9.25109C0.0819454 8.94387 -0.055718 8.50643 0.0202892 8.07856L0.968519 2.7538C1.06632 2.2058 1.49579 1.77634 2.04378 1.67854L7.36907 0.730306C7.79801 0.65483 8.23492 0.791962 8.5416 1.09918L18.1919 10.7494C18.7128 11.2677 18.7128 12.1091 18.1929 12.6278ZM5.02507 3.82322C4.50153 3.2917 3.64578 3.28532 3.11426 3.80886C2.58274 4.33241 2.5769 5.18816 3.10044 5.71968C3.62399 6.25066 4.4792 6.25757 5.01072 5.73349C5.54171 5.20995 5.54809 4.3542 5.02507 3.82322Z" fill="url(#paint0_linear)"/>
<defs>
<linearGradient id="paint0_linear" x1="9.99982" y1="0.709435" x2="9.99982" y2="19.2904" gradientUnits="userSpaceOnUse">
<stop stop-color="#667CE6"/>
<stop offset="0.5" stop-color="#6E61C2"/>
<stop offset="1" stop-color="#744EA6"/>
</linearGradient>
</defs>
</svg>
