<svg width="48" height="48" viewBox="0 0 48 48" fill="none" xmlns="http://www.w3.org/2000/svg">
<path d="M14 22V38C14 38.5304 13.7893 39.0391 13.4142 39.4142C13.0391 39.7893 12.5304 40 12 40H8C7.46957 40 6.96086 39.7893 6.58579 39.4142C6.21071 39.0391 6 38.5304 6 38V24C6 23.4696 6.21071 22.9609 6.58579 22.5858C6.96086 22.2107 7.46957 22 8 22H14ZM14 22C16.1217 22 18.1566 21.1571 19.6569 19.6569C21.1571 18.1566 22 16.1217 22 14V12C22 10.9391 22.4214 9.92172 23.1716 9.17157C23.9217 8.42143 24.9391 8 26 8C27.0609 8 28.0783 8.42143 28.8284 9.17157C29.5786 9.92172 30 10.9391 30 12V22H36C37.0609 22 38.0783 22.4214 38.8284 23.1716C39.5786 23.9217 40 24.9391 40 26L38 36C37.7124 37.2269 37.1667 38.2805 36.4453 39.0019C35.7239 39.7234 34.8657 40.0736 34 40H20C18.4087 40 16.8826 39.3679 15.7574 38.2426C14.6321 37.1174 14 35.5913 14 34" stroke="#606060" stroke-width="2" stroke-linecap="round" stroke-linejoin="round"/>
</svg>
