<svg width="27" height="27" viewBox="0 0 27 27" fill="none" xmlns="http://www.w3.org/2000/svg">
<g clip-path="url(#clip0)">
<rect width="27" height="27" fill="white"/>
<path d="M25.5098 27.0001C26.3327 27.0001 27 26.3329 27 25.5099V1.49017C27 0.66709 26.3327 0 25.5098 0H1.49017C0.666984 0 0 0.66709 0 1.49017V25.5099C0 26.3329 0.666984 27.0001 1.49017 27.0001H25.5098Z" fill="#496FA7"/>
<path d="M18.6295 27.0001V16.5442H22.1392L22.6646 12.4695H18.6295V9.86775C18.6295 8.68798 18.9572 7.88399 20.649 7.88399L22.8068 7.88304V4.23857C22.4334 4.18889 21.1526 4.07794 19.6626 4.07794C16.5514 4.07794 14.4216 5.97691 14.4216 9.46434V12.4695H10.903V16.5442H14.4216V27.0001H18.6295Z" fill="white"/>
</g>
<defs>
<clipPath id="clip0">
<rect width="27" height="27" fill="white"/>
</clipPath>
</defs>
</svg>
