<svg width="18" height="20" viewBox="0 0 18 20" fill="none" xmlns="http://www.w3.org/2000/svg">
<path d="M11.4712 12.9852C11.8459 12.3591 12.3967 12.0383 13.1272 12.0298C13.8577 12.0212 14.2263 11.6491 14.2383 10.9169C14.2486 10.1882 14.5659 9.63733 15.192 9.26439C15.8199 8.88974 15.9559 8.38594 15.5983 7.74784C15.2425 7.11145 15.2425 6.47507 15.5983 5.83697C15.9559 5.20058 15.8207 4.69763 15.192 4.32298C14.5659 3.94748 14.2477 3.39749 14.2383 2.6653C14.2263 1.93653 13.8577 1.56445 13.1272 1.5559C12.3967 1.54563 11.8459 1.22659 11.4712 0.600463C11.0966 -0.0273707 10.5928 -0.163373 9.95638 0.194167C9.32 0.549996 8.6819 0.549996 8.04551 0.194167C7.40827 -0.162517 6.90446 -0.0273707 6.52982 0.600463C6.15603 1.22744 5.60432 1.54649 4.8747 1.5559C4.14593 1.56445 3.77556 1.93653 3.7653 2.6653C3.75332 3.39749 3.43598 3.94663 2.80986 4.32298C2.18203 4.69763 2.04432 5.19973 2.40357 5.83697C2.76111 6.47507 2.76111 7.11145 2.40357 7.74784C2.04432 8.38594 2.18117 8.8906 2.80986 9.26439C3.43598 9.63733 3.75418 10.1882 3.7653 10.9169C3.77556 11.6483 4.14593 12.0212 4.8747 12.0298C5.60517 12.0383 6.15602 12.3591 6.53067 12.9852C6.90532 13.613 7.40913 13.749 8.04551 13.3898C8.6819 13.0374 9.32 13.0374 9.95638 13.3898C10.5928 13.7482 11.0974 13.613 11.4712 12.9852ZM9.00266 10.7895C6.79412 10.7895 5.00471 9.00009 5.00471 6.79155C5.00471 4.58472 6.79412 2.79531 9.00266 2.79531C11.2095 2.79531 12.9989 4.58472 12.9989 6.79155C12.9989 9.00009 11.2095 10.7895 9.00266 10.7895Z" fill="url(#paint0_linear)"/>
<path d="M4.81044 12.6157C4.04233 12.6157 3.93969 12.2581 3.93969 12.2581L0.939941 18.1541L3.34521 17.8838L4.67529 19.8854C4.67529 19.8854 7.44666 14.1032 7.44666 14.1416C6.01051 14.1057 6.58189 12.6542 4.81044 12.6157Z" fill="url(#paint1_linear)"/>
<path d="M14.0228 12.4891C11.8313 12.7183 12.277 13.2623 11.7757 13.6849C11.1992 14.2999 10.479 14.1793 10.479 14.1793L13.8619 20L14.6942 17.8445L17.0601 18.1533L14.0228 12.4891Z" fill="url(#paint2_linear)"/>
<path d="M9.83733 5.90967L9.00079 4.21606L8.1634 5.90967L6.29102 6.18339L7.64419 7.50321L7.32514 9.3696L9.00079 8.48944L10.6764 9.3696L10.3574 7.50321L11.7106 6.18339L9.83733 5.90967Z" fill="url(#paint3_linear)"/>
<defs>
<linearGradient id="paint0_linear" x1="9.00057" y1="-0.000175476" x2="9.00057" y2="13.5854" gradientUnits="userSpaceOnUse">
<stop stop-color="#667CE6"/>
<stop offset="0.5" stop-color="#6E61C2"/>
<stop offset="1" stop-color="#744EA6"/>
</linearGradient>
<linearGradient id="paint1_linear" x1="4.1933" y1="12.2581" x2="4.1933" y2="19.8854" gradientUnits="userSpaceOnUse">
<stop stop-color="#667CE6"/>
<stop offset="0.5" stop-color="#6E61C2"/>
<stop offset="1" stop-color="#744EA6"/>
</linearGradient>
<linearGradient id="paint2_linear" x1="13.7696" y1="12.4891" x2="13.7696" y2="20" gradientUnits="userSpaceOnUse">
<stop stop-color="#667CE6"/>
<stop offset="0.5" stop-color="#6E61C2"/>
<stop offset="1" stop-color="#744EA6"/>
</linearGradient>
<linearGradient id="paint3_linear" x1="9.00079" y1="4.21606" x2="9.00079" y2="9.3696" gradientUnits="userSpaceOnUse">
<stop stop-color="#667CE6"/>
<stop offset="0.5" stop-color="#6E61C2"/>
<stop offset="1" stop-color="#744EA6"/>
</linearGradient>
</defs>
</svg>
