<svg width="23" height="23" viewBox="0 0 23 23" fill="none" xmlns="http://www.w3.org/2000/svg">
<g clip-path="url(#clip0)">
<path d="M16.7346 14.3384L16.7346 6.84042C16.7346 6.06528 16.1039 5.43457 15.3287 5.43457C14.6319 5.43454 14.0705 5.9359 13.9484 6.57263L13.9171 6.59351C12.2952 7.67479 10.4076 8.24633 8.4583 8.2463L5.01916 8.2463C4.24212 8.24633 3.61326 8.87505 3.6133 9.65216L3.6133 11.5266C3.61328 12.3036 4.24209 12.9325 5.01916 12.9325L5.48779 12.9325L5.48779 16.2128C5.48777 16.9899 6.11654 17.6187 6.89363 17.6187C7.66882 17.6187 8.29949 16.988 8.29947 16.2128L8.29946 14.807L8.7681 14.807C9.5451 14.807 10.1739 14.1782 10.1739 13.4011L10.174 13.0826C11.5057 13.3175 12.7771 13.8253 13.9172 14.5853L13.9489 14.6065C14.0749 15.2562 14.6471 15.7443 15.3288 15.7443L15.3288 15.7443C16.1039 15.7443 16.7345 15.1136 16.7346 14.3384ZM5.01916 11.9952C4.7602 11.9952 4.55052 11.7856 4.55055 11.5266V9.65214C4.55057 9.3931 4.76014 9.18353 5.01916 9.18353L8.29949 9.18351L8.29949 11.9952C7.97855 11.9952 5.34803 11.9952 5.01916 11.9952ZM7.36224 16.2128C7.36224 16.4711 7.15201 16.6814 6.89363 16.6814C6.63527 16.6814 6.42502 16.4711 6.42502 16.2128V12.9324L7.36226 12.9324L7.36224 16.2128ZM8.29949 12.9324C8.49871 12.9324 8.8004 12.929 9.23673 12.9633L9.23671 13.4011C9.23671 13.6601 9.02714 13.8697 8.7681 13.8697L8.29946 13.8697L8.29949 12.9324ZM9.23669 12.0234L9.23669 9.15529C10.8926 9.03641 12.4905 8.53924 13.9229 7.69569L13.9229 13.483C12.4905 12.6394 10.8926 12.1423 9.23669 12.0234ZM15.3287 14.8069C15.0697 14.8069 14.8601 14.5973 14.8601 14.3383L14.8601 6.8404C14.8601 6.58136 15.0697 6.37179 15.3287 6.37179C15.5878 6.37179 15.7974 6.5814 15.7974 6.84042L15.7974 14.3383C15.7973 14.5967 15.5871 14.8069 15.3287 14.8069Z" fill="#ffffff"/>
<path d="M7.36203 10.5897C7.36206 10.3309 7.15222 10.1211 6.89342 10.1211L5.95619 10.1211C5.69739 10.1211 5.48758 10.3309 5.48758 10.5897C5.48756 10.8485 5.69741 11.0583 5.95619 11.0583L6.89342 11.0583C7.15222 11.0583 7.36204 10.8485 7.36203 10.5897Z" fill="#ffffff"/>
<path d="M18.9691 7.6496C18.7861 7.4666 18.4893 7.4666 18.3063 7.6496L17.6436 8.31234C17.4606 8.49535 17.4606 8.79207 17.6436 8.97507C17.8266 9.15808 18.1233 9.15808 18.3063 8.97507L18.9691 8.31234C19.1521 8.12933 19.1521 7.83261 18.9691 7.6496Z" fill="#ffffff"/>
<path d="M18.9687 12.9516L18.306 12.2889C18.123 12.1059 17.8262 12.1059 17.6432 12.2889C17.4602 12.4719 17.4602 12.7686 17.6432 12.9516L18.306 13.6144C18.489 13.7974 18.7857 13.7974 18.9687 13.6144C19.1517 13.4313 19.1517 13.1346 18.9687 12.9516Z" fill="#ffffff"/>
<path d="M20.4321 10.6322C20.4322 10.3734 20.2223 10.1636 19.9635 10.1636L18.638 10.1636C18.3792 10.1636 18.1694 10.3734 18.1694 10.6322C18.1694 10.891 18.3792 11.1008 18.638 11.1008L19.9635 11.1008C20.2223 11.1008 20.4321 10.891 20.4321 10.6322Z" fill="#ffffff"/>
</g>
<defs>
<clipPath id="clip0">
<rect width="16" height="16" fill="white" transform="translate(11.3193) rotate(45)"/>
</clipPath>
</defs>
</svg>
