<svg width="22" height="22" viewBox="0 0 22 22" fill="none" xmlns="http://www.w3.org/2000/svg">
<g clip-path="url(#clip0)">
<path d="M21.0833 0.916779H0.916683C0.410405 0.916779 0 1.32718 0 1.83341C0 2.33964 0.410405 2.75009 0.916683 2.75009H21.0833C21.5896 2.75009 22 2.33969 22 1.83341C22 1.32713 21.5896 0.916779 21.0833 0.916779Z" fill="white"/>
<path d="M21.0833 10.0834H0.916683C0.410405 10.0834 0 10.4938 0 11.0001C0 11.5063 0.410405 11.9167 0.916683 11.9167H21.0833C21.5896 11.9167 22 11.5063 22 11.0001C22 10.4938 21.5896 10.0834 21.0833 10.0834Z" fill="white"/>
<path d="M21.0833 19.2501H0.916683C0.410405 19.2501 0 19.6605 0 20.1667C0 20.673 0.410405 21.0834 0.916683 21.0834H21.0833C21.5896 21.0834 22 20.673 22 20.1667C22 19.6605 21.5896 19.2501 21.0833 19.2501Z" fill="white"/>
</g>
<defs>
<clipPath id="clip0">
<rect width="22" height="22" fill="white"/>
</clipPath>
</defs>
</svg>
