<svg width="10" height="10" viewBox="0 0 10 10" fill="none" xmlns="http://www.w3.org/2000/svg">
<path d="M9.33047 2.49088C8.88399 1.94216 8.27753 1.50874 7.51125 1.19065C6.74499 0.872608 5.90783 0.713547 5.00008 0.713547C4.32296 0.713547 3.67563 0.807463 3.05809 0.995335C2.44055 1.18319 1.90858 1.4371 1.46214 1.75703C1.01562 2.07699 0.660424 2.45738 0.396246 2.89819C0.132069 3.33902 0 3.80129 0 4.28493C0 4.84294 0.168287 5.3658 0.504998 5.85315C0.841709 6.34044 1.30203 6.74972 1.88616 7.08082C1.8452 7.22959 1.79684 7.371 1.74102 7.50483C1.68522 7.63875 1.635 7.74864 1.59036 7.83419C1.54568 7.91974 1.48528 8.01465 1.40896 8.11881C1.33275 8.22295 1.27509 8.29646 1.23602 8.33919C1.19699 8.38199 1.13282 8.45278 1.04348 8.55124C0.954252 8.6499 0.896553 8.71403 0.870538 8.74386C0.866766 8.7456 0.851911 8.76246 0.825877 8.79403C0.799862 8.8256 0.786805 8.84139 0.786805 8.84139L0.753324 8.89154C0.734697 8.91951 0.726331 8.93716 0.728169 8.94445C0.730045 8.95174 0.726331 8.97047 0.717028 9.00018C0.707704 9.03 0.708662 9.05234 0.719803 9.06728V9.07283C0.734755 9.13985 0.767299 9.19376 0.817492 9.23461C0.867685 9.2755 0.924484 9.29227 0.987694 9.2847C1.22957 9.25495 1.4416 9.21422 1.62386 9.16203C2.5986 8.91267 3.45428 8.46266 4.19085 7.8115C4.46981 7.84124 4.73954 7.85618 4.99996 7.85618C5.90769 7.85618 6.74481 7.69711 7.51115 7.37893C8.27749 7.06089 8.88389 6.62744 9.33029 6.07882C9.77677 5.53033 9.99998 4.93222 9.99998 4.28491C10 3.63758 9.77681 3.03951 9.33047 2.49088Z" fill="#909090"/>
</svg>
