<svg width="20" height="20" viewBox="0 0 20 20" fill="none" xmlns="http://www.w3.org/2000/svg">
<path d="M19.1506 7.94696L17.9221 6.7185V4.98161C17.9221 4.20608 17.6195 3.477 17.0724 2.92793C16.5233 2.38015 15.7955 2.0782 15.0187 2.0782H13.2825L12.0566 0.851668C11.5056 0.303245 10.7772 0 10.0003 0C9.22351 0 8.49507 0.3026 7.9473 0.850377L6.71883 2.07949H4.98259C3.38248 2.07949 2.07917 3.38215 2.07917 4.9829V6.71914L0.850709 7.94696C0.302286 8.49539 0.000976562 9.22447 0.000976562 10C0.000976562 10.7755 0.304222 11.5053 0.850709 12.0537L2.07917 13.2802V15.0184C2.07917 15.7933 2.38178 16.5217 2.92891 17.0721C3.47797 17.6211 4.20576 17.9218 4.98259 17.9218H6.71947L7.946 19.1477C8.49507 19.698 9.22286 19.9994 10.0003 19.9994C10.7778 19.9994 11.5056 19.6968 12.0534 19.149L13.2812 17.9205H15.0181C16.6175 17.9205 17.9215 16.6172 17.9215 15.0171V13.2815L19.15 12.0537C19.6984 11.5046 19.999 10.7762 19.999 10C20.0003 9.22447 19.6971 8.49539 19.1506 7.94696ZM7.08659 12.6105H6.01556L5.05162 10.8704C4.78387 10.3878 4.48901 9.80579 4.26835 9.27608L4.24835 9.28318C4.2748 9.87806 4.28899 10.5149 4.28899 11.2504V12.6086H3.35152V8.09601H4.54385L5.48068 9.74902C5.74844 10.2252 6.0162 10.7865 6.21751 11.2956H6.23751C6.17041 10.6994 6.1504 10.0903 6.1504 9.41416V8.09536H7.08659V12.6105ZM10.8475 12.6105H7.96859V8.0973H10.7526V8.93412H8.99188V9.8716H10.6533V10.7026H8.99188V11.7737H10.8468V12.6105H10.8475ZM15.8414 12.6105H14.7361L14.3542 10.6684C14.2671 10.2136 14.1935 9.7916 14.14 9.27608H14.1264C14.047 9.78515 13.9741 10.2136 13.867 10.6684L13.4386 12.6105H12.3211L11.2501 8.0973H12.3405L12.6811 9.95935C12.7805 10.4949 12.876 11.0762 12.9483 11.5324H12.9618C13.0354 11.0433 13.1425 10.5013 13.2567 9.94645L13.6386 8.09859H14.7239L15.0865 10C15.1865 10.5278 15.2613 11.0104 15.3271 11.5124H15.3407C15.4078 11.011 15.5091 10.4813 15.6013 9.94645L15.9691 8.09859H17.0059L15.8414 12.6105Z" fill="url(#paint0_linear)"/>
<defs>
<linearGradient id="paint0_linear" x1="10" y1="0" x2="10" y2="19.9994" gradientUnits="userSpaceOnUse">
<stop stop-color="#667CE6"/>
<stop offset="0.5" stop-color="#6E61C2"/>
<stop offset="1" stop-color="#744EA6"/>
</linearGradient>
</defs>
</svg>
