<svg width="20" height="20" viewBox="0 0 20 20" fill="none" xmlns="http://www.w3.org/2000/svg">
<path d="M7.5 4.16666H5.83333C5.3731 4.16666 5 4.53975 5 4.99999V15C5 15.4602 5.3731 15.8333 5.83333 15.8333H7.5C7.96024 15.8333 8.33333 15.4602 8.33333 15V4.99999C8.33333 4.53975 7.96024 4.16666 7.5 4.16666Z" stroke="white" stroke-width="1.25" stroke-linecap="round" stroke-linejoin="round"/>
<path d="M14.166 4.16666H12.4993C12.0391 4.16666 11.666 4.53975 11.666 4.99999V15C11.666 15.4602 12.0391 15.8333 12.4993 15.8333H14.166C14.6263 15.8333 14.9993 15.4602 14.9993 15V4.99999C14.9993 4.53975 14.6263 4.16666 14.166 4.16666Z" stroke="white" stroke-width="1.25" stroke-linecap="round" stroke-linejoin="round"/>
</svg>
