<svg width="20" height="20" viewBox="0 0 20 20" fill="none" xmlns="http://www.w3.org/2000/svg">
<path d="M2.28632 2.98562C0.838814 4.75304 0.0191402 6.98776 0.0191402 9.32054C0.0191402 14.8293 4.50082 19.311 10.0096 19.311C15.5183 19.311 20 14.8293 20 9.32054C20 6.61371 18.935 4.07936 17.0013 2.18447C16.5484 1.7406 15.8213 1.74803 15.3775 2.201C14.9336 2.65398 14.941 3.38095 15.394 3.82489C16.8832 5.28418 17.7033 7.23595 17.7033 9.32054C17.7033 13.5629 14.2519 17.0143 10.0096 17.0143C5.7672 17.0143 2.32858 13.5629 2.32858 9.32054C2.32858 7.65448 2.85803 6.05356 3.85324 4.74401V5.66504C3.85324 6.29922 4.36739 6.81337 5.00157 6.81337C5.63575 6.81337 6.14989 6.29922 6.14989 5.66504V1.83775C6.14989 1.8376 6.14989 1.83744 6.14989 1.83744C6.14989 1.20311 5.61026 0.688965 4.97608 0.688965H1.14833C0.514145 0.688965 0 1.20311 0 1.83729C0 2.47147 0.514145 2.98562 1.14833 2.98562H2.28632Z" fill="#606060"/>
</svg>
