<svg width="20" height="20" viewBox="0 0 20 20" fill="none" xmlns="http://www.w3.org/2000/svg">
<path d="M17.7137 2.98562C19.1612 4.75304 19.9809 6.98776 19.9809 9.32054C19.9809 14.8293 15.4992 19.311 9.99043 19.311C4.48168 19.311 0 14.8293 0 9.32054C0 6.61371 1.06496 4.07936 2.99866 2.18447C3.45164 1.7406 4.17868 1.74803 4.62255 2.201C5.06641 2.65398 5.05899 3.38095 4.60601 3.82489C3.11678 5.28418 2.29665 7.23595 2.29665 9.32054C2.29665 13.5629 5.74806 17.0143 9.99043 17.0143C14.2328 17.0143 17.6714 13.5629 17.6714 9.32054C17.6714 7.65448 17.142 6.05356 16.1468 4.74401V5.66504C16.1468 6.29922 15.6326 6.81337 14.9984 6.81337C14.3642 6.81337 13.8501 6.29922 13.8501 5.66504V1.83775C13.8501 1.8376 13.8501 1.83744 13.8501 1.83744C13.8501 1.20311 14.3897 0.688965 15.0239 0.688965H18.8517C19.4859 0.688965 20 1.20311 20 1.83729C20 2.47147 19.4859 2.98562 18.8517 2.98562H17.7137Z" fill="#606060"/>
</svg>
