<svg width="16" height="20" viewBox="0 0 16 20" fill="none" xmlns="http://www.w3.org/2000/svg">
<path d="M12.7929 4.13943C11.8997 4.13943 11.1807 3.42048 11.1807 2.52723V0H1.26786C0.962854 0 0.701416 0.261438 0.701416 0.566449V19.4335C0.701416 19.7386 0.962854 20 1.26786 20H14.7537C15.0587 20 15.2984 19.7386 15.2984 19.4335V4.13943H12.7929ZM10.9411 12.9412C9.30708 14.5752 6.6927 14.5752 5.05871 12.9412C3.42473 11.3072 3.42473 8.69281 5.05871 7.05882C6.6927 5.42484 9.32887 5.42484 10.9411 7.05882C12.5751 8.69281 12.5751 11.3072 10.9411 12.9412Z" fill="url(#paint0_linear)"/>
<path d="M5.73409 7.73421C4.47047 8.97604 4.47047 11.024 5.73409 12.2658C6.9977 13.5294 9.02384 13.5294 10.2657 12.2658C11.5293 11.0022 11.5293 8.97604 10.2657 7.73421C9.00206 6.49238 6.97592 6.47059 5.73409 7.73421ZM10.0696 9.08497L7.58594 11.5686C7.38986 11.7647 7.10664 11.7647 6.91056 11.5686L5.93017 10.5882C5.49444 10.1525 6.16982 9.47713 6.60555 9.91286L7.25914 10.5665L9.416 8.40959C9.85173 7.97386 10.5053 8.64924 10.0696 9.08497Z" fill="url(#paint1_linear)"/>
<path d="M12.7928 3.18083H14.6229L12.1174 0.675385V2.50545C12.1174 2.87582 12.4224 3.18083 12.7928 3.18083Z" fill="url(#paint2_linear)"/>
<defs>
<linearGradient id="paint0_linear" x1="7.99989" y1="0" x2="7.99989" y2="20" gradientUnits="userSpaceOnUse">
<stop stop-color="#667CE6"/>
<stop offset="0.5" stop-color="#6E61C2"/>
<stop offset="1" stop-color="#744EA6"/>
</linearGradient>
<linearGradient id="paint1_linear" x1="7.99988" y1="6.79465" x2="7.99988" y2="13.2135" gradientUnits="userSpaceOnUse">
<stop stop-color="#667CE6"/>
<stop offset="0.5" stop-color="#6E61C2"/>
<stop offset="1" stop-color="#744EA6"/>
</linearGradient>
<linearGradient id="paint2_linear" x1="13.3702" y1="0.675385" x2="13.3702" y2="3.18083" gradientUnits="userSpaceOnUse">
<stop stop-color="#667CE6"/>
<stop offset="0.5" stop-color="#6E61C2"/>
<stop offset="1" stop-color="#744EA6"/>
</linearGradient>
</defs>
</svg>
