<svg width="48" height="48" viewBox="0 0 48 48" fill="none" xmlns="http://www.w3.org/2000/svg">
<path d="M35.6005 39.6339L31.2565 41.91C31.1276 41.977 30.9825 42.007 30.8376 41.9964C30.6927 41.9859 30.5535 41.9353 30.4357 41.8502C30.3178 41.7651 30.2259 41.649 30.1703 41.5148C30.1146 41.3805 30.0974 41.2334 30.1205 41.09L30.9505 36.268L27.4365 32.854C27.3316 32.7526 27.2573 32.6237 27.2222 32.4821C27.187 32.3405 27.1923 32.1919 27.2376 32.0532C27.2829 31.9146 27.3662 31.7914 27.4781 31.6978C27.59 31.6042 27.726 31.544 27.8705 31.524L32.7265 30.82L34.8985 26.434C34.9634 26.3033 35.0636 26.1934 35.1876 26.1166C35.3116 26.0397 35.4546 25.999 35.6005 25.999C35.7464 25.999 35.8894 26.0397 36.0134 26.1166C36.1374 26.1934 36.2375 26.3033 36.3025 26.434L38.4745 30.82L43.3305 31.524C43.4746 31.5447 43.61 31.6053 43.7214 31.699C43.8328 31.7927 43.9158 31.9157 43.9609 32.054C44.0061 32.1924 44.0116 32.3407 43.9769 32.482C43.9422 32.6234 43.8686 32.7522 43.7645 32.854L40.2505 36.268L41.0785 41.088C41.1033 41.2317 41.0874 41.3795 41.0324 41.5146C40.9775 41.6498 40.8858 41.7668 40.7677 41.8524C40.6496 41.938 40.5098 41.9888 40.3643 41.9989C40.2188 42.0091 40.0733 41.9783 39.9445 41.91L35.6005 39.6339V39.6339Z" stroke="#606060" stroke-width="2" stroke-linecap="round" stroke-linejoin="round"/>
<path d="M12.4003 39.6339L8.05628 41.91C7.92737 41.977 7.78234 42.007 7.6374 41.9964C7.49246 41.9859 7.3533 41.9353 7.23546 41.8502C7.11763 41.7651 7.02575 41.649 6.97009 41.5148C6.91444 41.3805 6.89719 41.2334 6.92028 41.09L7.75028 36.268L4.23628 32.854C4.13139 32.7526 4.05713 32.6237 4.02196 32.4821C3.9868 32.3405 3.99215 32.1919 4.03741 32.0532C4.08266 31.9146 4.166 31.7914 4.2779 31.6978C4.38981 31.6042 4.52578 31.544 4.67028 31.524L9.52628 30.82L11.6983 26.434C11.7632 26.3033 11.8634 26.1934 11.9874 26.1166C12.1114 26.0397 12.2544 25.999 12.4003 25.999C12.5462 25.999 12.6892 26.0397 12.8132 26.1166C12.9372 26.1934 13.0373 26.3033 13.1023 26.434L15.2743 30.82L20.1303 31.524C20.2744 31.5447 20.4098 31.6053 20.5212 31.699C20.6326 31.7927 20.7156 31.9157 20.7607 32.054C20.8059 32.1924 20.8114 32.3407 20.7767 32.482C20.742 32.6234 20.6684 32.7522 20.5643 32.854L17.0503 36.268L17.8783 41.088C17.9031 41.2317 17.8872 41.3795 17.8322 41.5146C17.7773 41.6498 17.6856 41.7668 17.5675 41.8524C17.4494 41.938 17.3096 41.9888 17.1641 41.9989C17.0186 42.0091 16.8731 41.9783 16.7443 41.91L12.4003 39.6339V39.6339Z" stroke="#606060" stroke-width="2" stroke-linecap="round" stroke-linejoin="round"/>
<path d="M23.9999 19.634L19.6559 21.91C19.527 21.977 19.382 22.007 19.237 21.9964C19.0921 21.9859 18.9529 21.9353 18.8351 21.8502C18.7172 21.7651 18.6254 21.649 18.5697 21.5148C18.514 21.3805 18.4968 21.2334 18.5199 21.09L19.3499 16.268L15.8359 12.854C15.731 12.7526 15.6567 12.6237 15.6216 12.4821C15.5864 12.3405 15.5918 12.1919 15.637 12.0532C15.6823 11.9146 15.7656 11.7914 15.8775 11.6978C15.9894 11.6042 16.1254 11.544 16.2699 11.524L21.1259 10.82L23.2979 6.43395C23.3628 6.30332 23.463 6.1934 23.587 6.11657C23.711 6.03973 23.854 5.99902 23.9999 5.99902C24.1458 5.99902 24.2888 6.03973 24.4128 6.11657C24.5368 6.1934 24.6369 6.30332 24.7019 6.43395L26.8739 10.82L31.7299 11.524C31.874 11.5447 32.0094 11.6053 32.1208 11.699C32.2322 11.7927 32.3152 11.9157 32.3603 12.054C32.4055 12.1924 32.411 12.3407 32.3763 12.482C32.3416 12.6234 32.268 12.7522 32.1639 12.854L28.6499 16.268L29.4779 21.0879C29.5027 21.2317 29.4868 21.3795 29.4318 21.5146C29.3769 21.6498 29.2852 21.7668 29.1671 21.8524C29.049 21.938 28.9092 21.9888 28.7637 21.9989C28.6182 22.0091 28.4728 21.9783 28.3439 21.91L23.9999 19.634V19.634Z" stroke="#606060" stroke-width="2" stroke-linecap="round" stroke-linejoin="round"/>
</svg>
