<svg width="20" height="20" viewBox="0 0 20 20" fill="none" xmlns="http://www.w3.org/2000/svg">
<path d="M0.585938 20H14.7266C15.0504 20 15.3125 19.7379 15.3125 19.4141V2.92969C15.3125 2.6059 15.0504 2.34375 14.7266 2.34375H11.7578C11.7578 3.63632 10.7066 4.6875 9.41406 4.6875H5.89844C4.60587 4.6875 3.55469 3.63632 3.55469 2.34375H0.585938C0.262146 2.34375 0 2.6059 0 2.92969V19.4141C0 19.7379 0.262146 20 0.585938 20ZM6.48438 5.85938H12.3438C12.6675 5.85938 12.9297 6.12152 12.9297 6.44531C12.9297 6.7691 12.6675 7.03125 12.3438 7.03125H6.48438C6.16058 7.03125 5.89844 6.7691 5.89844 6.44531C5.89844 6.12152 6.16058 5.85938 6.48438 5.85938ZM6.48438 8.20312H12.3438C12.6675 8.20312 12.9297 8.46527 12.9297 8.78906C12.9297 9.11285 12.6675 9.375 12.3438 9.375H6.48438C6.16058 9.375 5.89844 9.11285 5.89844 8.78906C5.89844 8.46527 6.16058 8.20312 6.48438 8.20312ZM6.48438 10.5469H12.3438C12.6675 10.5469 12.9297 10.809 12.9297 11.1328C12.9297 11.4566 12.6675 11.7188 12.3438 11.7188H6.48438C6.16058 11.7188 5.89844 11.4566 5.89844 11.1328C5.89844 10.809 6.16058 10.5469 6.48438 10.5469ZM6.48438 12.8906H12.3438C12.6675 12.8906 12.9297 13.1528 12.9297 13.4766C12.9297 13.8004 12.6675 14.0625 12.3438 14.0625H6.48438C6.16058 14.0625 5.89844 13.8004 5.89844 13.4766C5.89844 13.1528 6.16058 12.8906 6.48438 12.8906ZM6.48438 15.2344H12.3438C12.6675 15.2344 12.9297 15.4965 12.9297 15.8203C12.9297 16.1441 12.6675 16.4062 12.3438 16.4062H6.48438C6.16058 16.4062 5.89844 16.1441 5.89844 15.8203C5.89844 15.4965 6.16058 15.2344 6.48438 15.2344ZM2.92969 5.85938H4.14062C4.46442 5.85938 4.72656 6.12152 4.72656 6.44531C4.72656 6.7691 4.46442 7.03125 4.14062 7.03125H2.92969C2.6059 7.03125 2.34375 6.7691 2.34375 6.44531C2.34375 6.12152 2.6059 5.85938 2.92969 5.85938ZM2.92969 8.20312H4.14062C4.46442 8.20312 4.72656 8.46527 4.72656 8.78906C4.72656 9.11285 4.46442 9.375 4.14062 9.375H2.92969C2.6059 9.375 2.34375 9.11285 2.34375 8.78906C2.34375 8.46527 2.6059 8.20312 2.92969 8.20312ZM2.92969 10.5469H4.14062C4.46442 10.5469 4.72656 10.809 4.72656 11.1328C4.72656 11.4566 4.46442 11.7188 4.14062 11.7188H2.92969C2.6059 11.7188 2.34375 11.4566 2.34375 11.1328C2.34375 10.809 2.6059 10.5469 2.92969 10.5469ZM2.92969 12.8906H4.14062C4.46442 12.8906 4.72656 13.1528 4.72656 13.4766C4.72656 13.8004 4.46442 14.0625 4.14062 14.0625H2.92969C2.6059 14.0625 2.34375 13.8004 2.34375 13.4766C2.34375 13.1528 2.6059 12.8906 2.92969 12.8906Z" fill="url(#paint0_linear)"/>
<path d="M6.48438 1.17188H5.89844C5.25116 1.17188 4.72656 1.69647 4.72656 2.34375C4.72656 2.99103 5.25116 3.51562 5.89844 3.51562H9.41406C10.0613 3.51562 10.5859 2.99103 10.5859 2.34375C10.5859 1.69647 10.0613 1.17188 9.41406 1.17188H8.82812C8.82812 0.524597 8.30353 0 7.65625 0C7.00897 0 6.48438 0.524597 6.48438 1.17188Z" fill="url(#paint1_linear)"/>
<path d="M16.4844 17.0312C16.4844 17.1222 16.5056 17.2121 16.5462 17.2934L17.718 19.6762C17.8177 19.8747 18.0202 20 18.2422 20C18.4642 20 18.6667 19.8747 18.7663 19.6762L19.9382 17.2934C19.9788 17.2121 20 17.1222 20 17.0312V10.5859H16.4844V17.0312Z" fill="url(#paint2_linear)"/>
<path d="M18.8281 3.66257V2.96875C18.8281 2.64496 18.566 2.38281 18.2422 2.38281C17.9184 2.38281 17.6562 2.64496 17.6562 2.96875V3.66257C16.9757 3.90533 16.4844 4.54956 16.4844 5.3125V7.07031H20V5.3125C20 4.54956 19.5087 3.90533 18.8281 3.66257Z" fill="url(#paint3_linear)"/>
<path d="M16.4844 8.24219H20V9.41406H16.4844V8.24219Z" fill="url(#paint4_linear)"/>
<defs>
<linearGradient id="paint0_linear" x1="7.65625" y1="2.34375" x2="7.65625" y2="20" gradientUnits="userSpaceOnUse">
<stop stop-color="#667CE6"/>
<stop offset="0.5" stop-color="#6E61C2"/>
<stop offset="1" stop-color="#744EA6"/>
</linearGradient>
<linearGradient id="paint1_linear" x1="7.65625" y1="0" x2="7.65625" y2="3.51562" gradientUnits="userSpaceOnUse">
<stop stop-color="#667CE6"/>
<stop offset="0.5" stop-color="#6E61C2"/>
<stop offset="1" stop-color="#744EA6"/>
</linearGradient>
<linearGradient id="paint2_linear" x1="18.2422" y1="10.5859" x2="18.2422" y2="20" gradientUnits="userSpaceOnUse">
<stop stop-color="#667CE6"/>
<stop offset="0.5" stop-color="#6E61C2"/>
<stop offset="1" stop-color="#744EA6"/>
</linearGradient>
<linearGradient id="paint3_linear" x1="18.2422" y1="2.38281" x2="18.2422" y2="7.07031" gradientUnits="userSpaceOnUse">
<stop stop-color="#667CE6"/>
<stop offset="0.5" stop-color="#6E61C2"/>
<stop offset="1" stop-color="#744EA6"/>
</linearGradient>
<linearGradient id="paint4_linear" x1="18.2422" y1="8.24219" x2="18.2422" y2="9.41406" gradientUnits="userSpaceOnUse">
<stop stop-color="#667CE6"/>
<stop offset="0.5" stop-color="#6E61C2"/>
<stop offset="1" stop-color="#744EA6"/>
</linearGradient>
</defs>
</svg>
