<svg width="17" height="16" viewBox="0 0 17 16" fill="none" xmlns="http://www.w3.org/2000/svg">
<path d="M4.83333 7.16667V13.8333C4.83333 14.0543 4.74554 14.2663 4.58926 14.4226C4.43298 14.5789 4.22101 14.6667 4 14.6667H2.33333C2.11232 14.6667 1.90036 14.5789 1.74408 14.4226C1.5878 14.2663 1.5 14.0543 1.5 13.8333V8C1.5 7.77898 1.5878 7.56702 1.74408 7.41074C1.90036 7.25446 2.11232 7.16667 2.33333 7.16667H4.83333ZM4.83333 7.16667C5.71739 7.16667 6.56523 6.81548 7.19036 6.19035C7.81548 5.56523 8.16667 4.71739 8.16667 3.83333V3C8.16667 2.55797 8.34226 2.13405 8.65482 1.82149C8.96738 1.50893 9.39131 1.33333 9.83333 1.33333C10.2754 1.33333 10.6993 1.50893 11.0118 1.82149C11.3244 2.13405 11.5 2.55797 11.5 3V7.16667H14C14.442 7.16667 14.866 7.34226 15.1785 7.65482C15.4911 7.96738 15.6667 8.3913 15.6667 8.83333L14.8333 13C14.7135 13.5112 14.4861 13.9502 14.1855 14.2508C13.8849 14.5514 13.5274 14.6974 13.1667 14.6667H7.33333C6.67029 14.6667 6.03441 14.4033 5.56557 13.9344C5.09673 13.4656 4.83333 12.8297 4.83333 12.1667" stroke="#2C3E50" stroke-width="1.25" stroke-linecap="round" stroke-linejoin="round"/>
</svg>
