<svg width="20" height="20" viewBox="0 0 20 20" fill="none" xmlns="http://www.w3.org/2000/svg">
<path d="M5.83333 10.8333L5.83333 4.16667C5.83333 3.94566 5.74553 3.7337 5.58925 3.57742C5.43297 3.42114 5.22101 3.33334 5 3.33334L3.33333 3.33334C3.11232 3.33334 2.90036 3.42114 2.74408 3.57742C2.5878 3.7337 2.5 3.94566 2.5 4.16667L2.5 10C2.5 10.221 2.5878 10.433 2.74408 10.5893C2.90036 10.7455 3.11232 10.8333 3.33333 10.8333L5.83333 10.8333ZM5.83333 10.8333C6.71739 10.8333 7.56523 11.1845 8.19036 11.8096C8.81548 12.4348 9.16667 13.2826 9.16667 14.1667L9.16667 15C9.16667 15.442 9.34226 15.866 9.65482 16.1785C9.96738 16.4911 10.3913 16.6667 10.8333 16.6667C11.2754 16.6667 11.6993 16.4911 12.0118 16.1785C12.3244 15.866 12.5 15.442 12.5 15L12.5 10.8333L15 10.8333C15.442 10.8333 15.8659 10.6577 16.1785 10.3452C16.4911 10.0326 16.6667 9.6087 16.6667 9.16667L15.8333 5C15.7135 4.48878 15.4861 4.0498 15.1855 3.7492C14.8849 3.4486 14.5274 3.30265 14.1667 3.33334L8.33333 3.33334C7.67029 3.33334 7.03441 3.59673 6.56557 4.06557C6.09672 4.53441 5.83333 5.1703 5.83333 5.83334" stroke="#2C3E50" stroke-width="1.25" stroke-linecap="round" stroke-linejoin="round"/>
</svg>
