<svg width="20" height="20" viewBox="0 0 20 20" fill="none" xmlns="http://www.w3.org/2000/svg">
<path d="M7.50033 9.16667C9.34127 9.16667 10.8337 7.67428 10.8337 5.83333C10.8337 3.99238 9.34127 2.5 7.50033 2.5C5.65938 2.5 4.16699 3.99238 4.16699 5.83333C4.16699 7.67428 5.65938 9.16667 7.50033 9.16667Z" stroke="#2C3E50" stroke-width="1.25" stroke-linecap="round" stroke-linejoin="round"/>
<path d="M2.5 17.5V15.8333C2.5 14.9493 2.85119 14.1014 3.47631 13.4763C4.10143 12.8512 4.94928 12.5 5.83333 12.5H9.16667C10.0507 12.5 10.8986 12.8512 11.5237 13.4763C12.1488 14.1014 12.5 14.9493 12.5 15.8333V17.5" stroke="#2C3E50" stroke-width="1.25" stroke-linecap="round" stroke-linejoin="round"/>
<path d="M15.833 6.66667V11.6667M13.333 9.16667H18.333H13.333Z" stroke="#2C3E50" stroke-width="1.25" stroke-linecap="round" stroke-linejoin="round"/>
</svg>
